<svg width="24" height="24" viewBox="0 0 24 24" fill="none" xmlns="http://www.w3.org/2000/svg">
<path d="M3.575 9.15005C3.425 9.15005 3.3 9.09588 3.2 8.98755C3.1 8.87922 3.05 8.74172 3.05 8.57505C3.05 8.42505 3.1 8.29588 3.2 8.18755C3.3 8.07922 3.425 8.02505 3.575 8.02505H7.15C7.55 8.02505 7.8625 8.13755 8.0875 8.36255C8.3125 8.58755 8.48333 8.85005 8.6 9.15005H3.575ZM5.675 18.475C6.59167 18.475 7.37083 18.1542 8.0125 17.5125C8.65417 16.8709 8.975 16.0917 8.975 15.175C8.975 14.275 8.65417 13.5 8.0125 12.85C7.37083 12.2 6.59167 11.875 5.675 11.875C4.775 11.875 4 12.1959 3.35 12.8375C2.7 13.4792 2.375 14.2584 2.375 15.175C2.375 16.0917 2.69583 16.8709 3.3375 17.5125C3.97917 18.1542 4.75833 18.475 5.675 18.475ZM19.6 18.475C20.15 18.475 20.625 18.2792 21.025 17.8875C21.425 17.4959 21.625 17.0167 21.625 16.45C21.625 15.9 21.4292 15.425 21.0375 15.025C20.6458 14.625 20.1667 14.425 19.6 14.425C19.0333 14.425 18.5542 14.6209 18.1625 15.0125C17.7708 15.4042 17.575 15.8834 17.575 16.45C17.575 17.0167 17.7708 17.4959 18.1625 17.8875C18.5542 18.2792 19.0333 18.475 19.6 18.475ZM5.675 16.675C5.275 16.675 4.92917 16.5292 4.6375 16.2375C4.34583 15.9459 4.2 15.5917 4.2 15.175C4.2 14.775 4.34167 14.4292 4.625 14.1375C4.90833 13.8459 5.25833 13.7 5.675 13.7C6.09167 13.7 6.44583 13.8417 6.7375 14.125C7.02917 14.4084 7.175 14.7584 7.175 15.175C7.175 15.5917 7.02917 15.9459 6.7375 16.2375C6.44583 16.5292 6.09167 16.675 5.675 16.675ZM20.175 13.35C20.4083 13.4 20.6 13.4625 20.75 13.5375C20.9 13.6125 21.0833 13.7167 21.3 13.85V7.85005C21.3 7.43338 21.1625 7.08755 20.8875 6.81255C20.6125 6.53755 20.2667 6.40005 19.85 6.40005H13.775L12.6 5.22505L14.1 3.70005L13.575 3.17505L10.025 6.72505L10.575 7.25005L12.075 5.75005L13.25 6.90005V9.05005C13.25 9.81672 12.9875 10.4709 12.4625 11.0125C11.9375 11.5542 11.2917 11.825 10.525 11.825H8.6C8.8 12.025 8.9625 12.2042 9.0875 12.3625C9.2125 12.5209 9.35833 12.7167 9.525 12.95H10.525C11.575 12.95 12.4792 12.5667 13.2375 11.8C13.9958 11.0334 14.375 10.1167 14.375 9.05005V7.52505H19.85C19.95 7.52505 20.0292 7.55838 20.0875 7.62505C20.1458 7.69172 20.175 7.76672 20.175 7.85005V13.35ZM16.525 15.75C16.6083 15.4834 16.6875 15.2709 16.7625 15.1125C16.8375 14.9542 16.95 14.7834 17.1 14.6H10.075C10.1083 14.8167 10.125 15.0042 10.125 15.1625C10.125 15.3209 10.1083 15.5167 10.075 15.75H16.525ZM19.6 19.625C18.7167 19.625 17.9667 19.325 17.35 18.725C16.7333 18.125 16.425 17.3834 16.425 16.5C16.425 15.6334 16.7417 14.8834 17.375 14.25C18.0083 13.6167 18.7667 13.3 19.65 13.3C20.5167 13.3 21.25 13.6084 21.85 14.225C22.45 14.8417 22.75 15.5834 22.75 16.45C22.75 17.3334 22.4417 18.0834 21.825 18.7C21.2083 19.3167 20.4667 19.625 19.6 19.625ZM5.65 19.625C4.41667 19.625 3.375 19.1917 2.525 18.325C1.675 17.4584 1.25 16.4084 1.25 15.175C1.25 13.9584 1.68333 12.9167 2.55 12.05C3.41667 11.1834 4.45833 10.75 5.675 10.75C6.90833 10.75 7.95833 11.1834 8.825 12.05C9.69167 12.9167 10.125 13.9584 10.125 15.175C10.125 16.4084 9.69167 17.4584 8.825 18.325C7.95833 19.1917 6.9 19.625 5.65 19.625Z" fill="white"/>
</svg>
