<svg width="24" height="24" viewBox="0 0 24 24" fill="none" xmlns="http://www.w3.org/2000/svg">
<path d="M16.025 21.25L13.425 16.85H10.25C10.0666 16.85 9.90828 16.7833 9.77495 16.65C9.64162 16.5167 9.57495 16.3583 9.57495 16.175C9.57495 15.9917 9.64162 15.8375 9.77495 15.7125C9.90828 15.5875 10.0666 15.525 10.25 15.525H13.425L16.025 11.125H16.5L15.2 15.525H18.65L19.4 14.525H19.8L19.3 16.175L19.8 17.85H19.4L18.65 16.85H15.2L16.5 21.25H16.025ZM7.49995 12.875L8.79995 8.475H5.34995L4.59995 9.475H4.19995L4.69995 7.825L4.19995 6.15H4.59995L5.34995 7.15H8.79995L7.49995 2.75H7.97495L10.575 7.15H13.75C13.95 7.15 14.1125 7.2125 14.2375 7.3375C14.3625 7.4625 14.425 7.625 14.425 7.825C14.425 7.99167 14.3625 8.14167 14.2375 8.275C14.1125 8.40833 13.95 8.475 13.75 8.475H10.575L7.97495 12.875H7.49995Z" fill="white"/>
</svg>
