<svg width="24" height="24" viewBox="0 0 24 24" fill="none" xmlns="http://www.w3.org/2000/svg">
<path d="M17.225 21.75V13.75H14.6V6.55C14.6 5.35 14.9333 4.35417 15.6 3.5625C16.2667 2.77083 17.1917 2.34167 18.375 2.275V21.75H17.225ZM7.35 21.75V12.625C6.51667 12.4917 5.8125 12.1042 5.2375 11.4625C4.6625 10.8208 4.375 10.0417 4.375 9.125V2.25H5.5V9.125H7.35V2.25H8.475V9.125H10.325V2.25H11.45V9.125C11.45 10.0417 11.1625 10.8208 10.5875 11.4625C10.0125 12.1042 9.30833 12.4917 8.475 12.625V21.75H7.35Z" fill="white"/>
</svg>
