<svg width="24" height="24" viewBox="0 0 24 24" fill="none" xmlns="http://www.w3.org/2000/svg">
<path d="M11.425 17.575H12.575V14.575H15.575V13.425H12.575V10.425H11.425V13.425H8.425V14.575H11.425V17.575ZM3.95 21.5C3.55 21.5 3.20833 21.3583 2.925 21.075C2.64167 20.7917 2.5 20.45 2.5 20.05V7.7C2.5 7.31667 2.64167 6.97917 2.925 6.6875C3.20833 6.39583 3.55 6.25 3.95 6.25H8.675V4.45C8.675 4.05 8.81667 3.70833 9.1 3.425C9.38333 3.14167 9.725 3 10.125 3H13.875C14.275 3 14.6167 3.14167 14.9 3.425C15.1833 3.70833 15.325 4.05 15.325 4.45V6.25H20.05C20.45 6.25 20.7917 6.39583 21.075 6.6875C21.3583 6.97917 21.5 7.31667 21.5 7.7V20.05C21.5 20.45 21.3583 20.7917 21.075 21.075C20.7917 21.3583 20.45 21.5 20.05 21.5H3.95ZM9.825 6.25H14.175V4.45C14.175 4.36667 14.1458 4.29167 14.0875 4.225C14.0292 4.15833 13.9583 4.125 13.875 4.125H10.125C10.0417 4.125 9.97083 4.15833 9.9125 4.225C9.85417 4.29167 9.825 4.36667 9.825 4.45V6.25ZM3.95 20.375H20.05C20.1333 20.375 20.2083 20.3417 20.275 20.275C20.3417 20.2083 20.375 20.1333 20.375 20.05V7.7C20.375 7.63333 20.3417 7.56667 20.275 7.5C20.2083 7.43333 20.1333 7.4 20.05 7.4H3.95C3.86667 7.4 3.79167 7.43333 3.725 7.5C3.65833 7.56667 3.625 7.63333 3.625 7.7V20.05C3.625 20.1333 3.65833 20.2083 3.725 20.275C3.79167 20.3417 3.86667 20.375 3.95 20.375ZM3.625 7.7C3.625 7.61667 3.625 7.54583 3.625 7.4875C3.625 7.42917 3.625 7.4 3.625 7.4C3.625 7.4 3.625 7.42917 3.625 7.4875C3.625 7.54583 3.625 7.61667 3.625 7.7V20.05C3.625 20.15 3.625 20.2292 3.625 20.2875C3.625 20.3458 3.625 20.375 3.625 20.375C3.625 20.375 3.625 20.3458 3.625 20.2875C3.625 20.2292 3.625 20.15 3.625 20.05V7.7Z" fill="white"/>
</svg>
