<svg width="24" height="24" viewBox="0 0 24 24" fill="none" xmlns="http://www.w3.org/2000/svg">
<path d="M5.00007 20.5C4.36223 20.5 3.9089 20.2154 3.64007 19.6462C3.37107 19.0769 3.43598 18.5474 3.83482 18.0577L9.50007 11.173V5H8.30782C8.09532 5 7.91715 4.92808 7.77332 4.78425C7.62965 4.64042 7.55782 4.46225 7.55782 4.24975C7.55782 4.03708 7.62965 3.859 7.77332 3.7155C7.91715 3.57183 8.09532 3.5 8.30782 3.5H15.6923C15.9048 3.5 16.083 3.57192 16.2268 3.71575C16.3705 3.85958 16.4423 4.03775 16.4423 4.25025C16.4423 4.46292 16.3705 4.641 16.2268 4.7845C16.083 4.92817 15.9048 5 15.6923 5H14.5001V11.173L20.1653 18.0577C20.5642 18.5474 20.6291 19.0769 20.3601 19.6462C20.0912 20.2154 19.6379 20.5 19.0001 20.5H5.00007ZM7.00007 18H17.0001L13.6001 14H10.4001L7.00007 18ZM5.00007 19H19.0001L13.0001 11.7V5H11.0001V11.7L5.00007 19Z" fill="white"/>
</svg>
