<svg width="24" height="24" viewBox="0 0 24 24" fill="none" xmlns="http://www.w3.org/2000/svg">
<path d="M10.8074 21.3076C10.5949 21.3076 10.4168 21.2357 10.2731 21.0919C10.1296 20.9482 10.0579 20.7701 10.0579 20.5576V15.4614C10.0579 15.3575 10.0646 15.2537 10.0781 15.1499C10.0914 15.046 10.1148 14.9473 10.1481 14.8536L11.1694 11.9651C11.2899 11.6051 11.5083 11.3125 11.8246 11.0874C12.1409 10.8624 12.4949 10.7499 12.8866 10.7499H18.6136C19.0053 10.7499 19.3593 10.8624 19.6756 11.0874C19.9919 11.3125 20.2104 11.6051 20.3309 11.9651L21.3521 14.8536C21.3854 14.9473 21.4088 15.046 21.4221 15.1499C21.4356 15.2537 21.4424 15.3575 21.4424 15.4614V20.5576C21.4424 20.7701 21.3704 20.9482 21.2266 21.0919C21.0828 21.2357 20.9046 21.3076 20.6921 21.3076C20.4794 21.3076 20.3014 21.2357 20.1579 21.0919C20.0142 20.9482 19.9424 20.7701 19.9424 20.5576V19.7114H11.5579V20.5576C11.5579 20.7701 11.4859 20.9482 11.3421 21.0919C11.1983 21.2357 11.02 21.3076 10.8074 21.3076ZM11.6731 14.1729H19.8271L19.1174 12.1536C19.0982 12.0896 19.0629 12.0384 19.0116 11.9999C18.9603 11.9614 18.8994 11.9421 18.8289 11.9421H12.6714C12.6007 11.9421 12.5398 11.9614 12.4886 11.9999C12.4373 12.0384 12.402 12.0896 12.3829 12.1536L11.6731 14.1729ZM12.7886 17.8459C13.0556 17.8459 13.2794 17.7556 13.4599 17.5751C13.6405 17.3944 13.7309 17.1706 13.7309 16.9036C13.7309 16.6366 13.6405 16.4129 13.4599 16.2324C13.2794 16.0517 13.0556 15.9614 12.7886 15.9614C12.5216 15.9614 12.2978 16.0517 12.1171 16.2324C11.9366 16.4129 11.8464 16.6366 11.8464 16.9036C11.8464 17.1706 11.9366 17.3944 12.1171 17.5751C12.2978 17.7556 12.5216 17.8459 12.7886 17.8459ZM18.7116 17.8459C18.9786 17.8459 19.2024 17.7556 19.3831 17.5751C19.5636 17.3944 19.6539 17.1706 19.6539 16.9036C19.6539 16.6366 19.5636 16.4129 19.3831 16.2324C19.2024 16.0517 18.9786 15.9614 18.7116 15.9614C18.4446 15.9614 18.2209 16.0517 18.0404 16.2324C17.8597 16.4129 17.7694 16.6366 17.7694 16.9036C17.7694 17.1706 17.8597 17.3944 18.0404 17.5751C18.2209 17.7556 18.4446 17.8459 18.7116 17.8459ZM6.17311 13.3076V11.5384H7.94236V13.3076H6.17311ZM10.6731 7.8076V6.03835H12.4424V7.8076H10.6731ZM6.17311 17.3076V15.5384H7.94236V17.3076H6.17311ZM6.17311 21.3076V19.5384H7.94236V21.3076H6.17311ZM2.55786 21.3076V9.4421C2.55786 9.02027 2.70561 8.6616 3.00111 8.3661C3.29661 8.0706 3.65528 7.92285 4.07711 7.92285H7.05786V3.9421C7.05786 3.52044 7.20561 3.16177 7.50111 2.8661C7.79661 2.5706 8.15528 2.42285 8.57711 2.42285H14.5386C14.9603 2.42285 15.3189 2.5706 15.6144 2.8661C15.9099 3.16177 16.0576 3.52044 16.0576 3.9421V8.63435H14.5579V3.92285H8.55786V9.42285H4.05786V21.3076H2.55786ZM11.2501 18.5191H20.2501V15.3651H11.2501V18.5191Z" fill="white"/>
</svg>
