<svg width="24" height="24" viewBox="0 0 24 24" fill="none" xmlns="http://www.w3.org/2000/svg">
<path d="M15.6823 5.88064C16.2364 5.3265 17.1348 5.3265 17.689 5.88064L18.1194 6.31102C18.6735 6.86516 18.6735 7.76359 18.1194 8.31773L17.1406 9.29645C16.5865 9.85058 15.6881 9.85058 15.1339 9.29645L14.7036 8.86607C14.1494 8.31193 14.1494 7.4135 14.7036 6.85936L15.6823 5.88064ZM12.1676 10.1814C12.6235 9.72547 13.3627 9.72547 13.8186 10.1814C14.2745 10.6373 14.2745 11.3765 13.8186 11.8324L4.49298 21.1581C4.03706 21.614 3.29786 21.614 2.84194 21.1581C2.38602 20.7021 2.38602 19.9629 2.84194 19.507L12.1676 10.1814ZM17.9541 10.6833L18.9791 9.65824C19.1624 9.4749 19.4169 9.49753 19.5473 9.64364C20.2192 10.397 20.9038 11.3973 21.2567 12.4515C21.6071 13.4983 21.6187 14.5528 21.0291 15.4971C21.0013 15.5416 20.9772 15.5577 20.9668 15.5632C20.9564 15.5687 20.9476 15.5702 20.9378 15.5694C20.9205 15.5681 20.855 15.552 20.7953 15.4455C20.2807 14.5273 19.3819 12.9653 17.9539 11.3715C17.7658 11.1615 17.7792 10.8581 17.9541 10.6833ZM14.3418 5.02089L13.3167 6.04594C13.1419 6.22076 12.8385 6.23421 12.6285 6.04607C11.0347 4.61814 9.47265 3.71935 8.55448 3.20466C8.44802 3.14498 8.43195 3.07954 8.43057 3.06222C8.42979 3.05238 8.4313 3.0436 8.43679 3.03321C8.44231 3.02278 8.45841 2.99865 8.50288 2.97089C9.44725 2.38131 10.5017 2.3929 11.5485 2.74331C12.6027 3.0962 13.603 3.78078 14.3564 4.45275C14.5025 4.58307 14.5251 4.83755 14.3418 5.02089Z" stroke="white"/>
</svg>
