<svg width="24" height="24" viewBox="0 0 24 24" fill="none" xmlns="http://www.w3.org/2000/svg">
<path d="M17.1499 20.225H5.6749C5.10824 20.225 4.6499 20.05 4.2999 19.7C3.9499 19.35 3.7749 18.8917 3.7749 18.325V6.625C3.7749 6.00834 3.99574 5.6125 4.4374 5.4375C4.87907 5.2625 5.31657 5.38334 5.7499 5.8L6.7999 6.85L5.9499 7.7L6.5249 8.25L7.3749 7.425L9.9749 10.025L9.1249 10.875L9.6999 11.425L10.5249 10.6L13.1999 13.25L12.3499 14.1L12.9249 14.65L13.7499 13.825L16.3749 16.425L15.5249 17.275L16.0999 17.825L16.9499 17L17.9999 18.075C18.5332 18.5917 18.7041 19.0792 18.5124 19.5375C18.3207 19.9958 17.8666 20.225 17.1499 20.225ZM5.2749 8.05V18.425C5.2749 18.5083 5.30407 18.5792 5.3624 18.6375C5.42074 18.6958 5.49157 18.725 5.5749 18.725H15.9499L5.2749 8.05Z" fill="white"/>
</svg>
