<svg width="24" height="24" viewBox="0 0 24 24" fill="none" xmlns="http://www.w3.org/2000/svg">
<path d="M6.95 22.5C6.55 22.5 6.20833 22.3583 5.925 22.075C5.64167 21.7917 5.5 21.45 5.5 21.05V2.95C5.5 2.55 5.64167 2.20833 5.925 1.925C6.20833 1.64167 6.55 1.5 6.95 1.5H17.05C17.45 1.5 17.7917 1.64167 18.075 1.925C18.3583 2.20833 18.5 2.55 18.5 2.95V6.35H17.375V4.825H6.625V19.175H17.375V17.65H18.5V21.05C18.5 21.45 18.3583 21.7917 18.075 22.075C17.7917 22.3583 17.45 22.5 17.05 22.5H6.95ZM17.375 15.35L17.3 14.4C17.05 14.35 16.8292 14.2667 16.6375 14.15C16.4458 14.0333 16.2833 13.8917 16.15 13.725L15.325 14.15L14.775 13.275L15.525 12.725C15.4417 12.5083 15.4 12.2583 15.4 11.975C15.4 11.6917 15.4417 11.4333 15.525 11.2L14.775 10.65L15.325 9.775L16.15 10.2C16.2833 10.0333 16.4375 9.89167 16.6125 9.775C16.7875 9.65833 17.0167 9.575 17.3 9.525L17.375 8.575H18.45L18.55 9.525C18.8167 9.575 19.0375 9.65833 19.2125 9.775C19.3875 9.89167 19.5417 10.0333 19.675 10.2L20.525 9.775L21.05 10.65L20.3 11.2C20.4 11.4333 20.45 11.6917 20.45 11.975C20.45 12.2583 20.4 12.5083 20.3 12.725L21.05 13.275L20.5 14.15L19.675 13.725C19.5417 13.8917 19.3792 14.0333 19.1875 14.15C18.9958 14.2667 18.7833 14.35 18.55 14.4L18.45 15.35H17.375ZM17.925 13.6C18.375 13.6 18.7583 13.4417 19.075 13.125C19.3917 12.8083 19.55 12.4167 19.55 11.95C19.55 11.5 19.3917 11.1208 19.075 10.8125C18.7583 10.5042 18.375 10.35 17.925 10.35C17.4583 10.35 17.0667 10.5042 16.75 10.8125C16.4333 11.1208 16.275 11.5 16.275 11.95C16.275 12.4167 16.4333 12.8083 16.75 13.125C17.0667 13.4417 17.4583 13.6 17.925 13.6Z" fill="white"/>
</svg>
