<svg width="24" height="24" viewBox="0 0 24 24" fill="none" xmlns="http://www.w3.org/2000/svg">
<path d="M6 18.1C5.33333 18.1 4.7625 17.8667 4.2875 17.4C3.8125 16.9333 3.575 16.3583 3.575 15.675H1.625V6.825C1.625 6.45833 1.75417 6.14583 2.0125 5.8875C2.27083 5.62917 2.58333 5.5 2.95 5.5H16.775L22.375 10.95V15.675H20.575C20.575 16.3583 20.3375 16.9333 19.8625 17.4C19.3875 17.8667 18.8167 18.1 18.15 18.1C17.4833 18.1 16.9167 17.8667 16.45 17.4C15.9833 16.9333 15.75 16.3583 15.75 15.675H8.425C8.425 16.3583 8.1875 16.9333 7.7125 17.4C7.2375 17.8667 6.66667 18.1 6 18.1ZM14.625 10.3H19.975L16.2 6.625H14.625V10.3ZM8.7 10.3H13.5V6.625H8.7V10.3ZM2.75 10.3H7.55V6.625H2.75V10.3ZM6 17.125C6.4 17.125 6.7375 16.9833 7.0125 16.7C7.2875 16.4167 7.425 16.075 7.425 15.675C7.425 15.275 7.2875 14.9375 7.0125 14.6625C6.7375 14.3875 6.4 14.25 6 14.25C5.6 14.25 5.2625 14.3875 4.9875 14.6625C4.7125 14.9375 4.575 15.275 4.575 15.675C4.575 16.075 4.7125 16.4167 4.9875 16.7C5.2625 16.9833 5.6 17.125 6 17.125ZM18.15 17.125C18.55 17.125 18.8875 16.9833 19.1625 16.7C19.4375 16.4167 19.575 16.075 19.575 15.675C19.575 15.275 19.4375 14.9375 19.1625 14.6625C18.8875 14.3875 18.55 14.25 18.15 14.25C17.75 14.25 17.4125 14.3875 17.1375 14.6625C16.8625 14.9375 16.725 15.275 16.725 15.675C16.725 16.075 16.8625 16.4167 17.1375 16.7C17.4125 16.9833 17.75 17.125 18.15 17.125ZM2.75 14.55H3.85C4.06667 14.15 4.375 13.8375 4.775 13.6125C5.175 13.3875 5.58333 13.275 6 13.275C6.41667 13.275 6.82083 13.3833 7.2125 13.6C7.60417 13.8167 7.91667 14.1333 8.15 14.55H16C16.2167 14.15 16.525 13.8375 16.925 13.6125C17.325 13.3875 17.7333 13.275 18.15 13.275C18.5833 13.275 18.9917 13.3833 19.375 13.6C19.7583 13.8167 20.075 14.1333 20.325 14.55H21.25V11.425H2.75V14.55ZM21.25 11.425H20.325C20.075 11.425 19.7583 11.425 19.375 11.425C18.9917 11.425 18.5833 11.425 18.15 11.425C17.7333 11.425 17.325 11.425 16.925 11.425C16.525 11.425 16.2167 11.425 16 11.425H8.15C7.91667 11.425 7.60417 11.425 7.2125 11.425C6.82083 11.425 6.41667 11.425 6 11.425C5.58333 11.425 5.175 11.425 4.775 11.425C4.375 11.425 4.06667 11.425 3.85 11.425H2.75H21.25Z" fill="white"/>
</svg>
