<svg width="24" height="24" viewBox="0 0 24 24" fill="none" xmlns="http://www.w3.org/2000/svg">
<path d="M19.05 21.5H4.95C4.55 21.5 4.20833 21.3583 3.925 21.075C3.64167 20.7917 3.5 20.45 3.5 20.05V7.75C3.5 7.36667 3.64167 7.03333 3.925 6.75C4.20833 6.46667 4.55 6.325 4.95 6.325H7.675C7.675 5.125 8.07917 4.10417 8.8875 3.2625C9.69583 2.42083 10.7 2 11.9 2C13.1 2 14.1375 2.42083 15.0125 3.2625C15.8875 4.10417 16.325 5.125 16.325 6.325H19.05C19.45 6.325 19.7917 6.46667 20.075 6.75C20.3583 7.03333 20.5 7.36667 20.5 7.75V20.05C20.5 20.45 20.3583 20.7917 20.075 21.075C19.7917 21.3583 19.45 21.5 19.05 21.5ZM8.825 6.325H15.175C15.175 5.425 14.8667 4.66667 14.25 4.05C13.6333 3.43333 12.8833 3.125 12 3.125C11.1167 3.125 10.3667 3.43333 9.75 4.05C9.13333 4.66667 8.825 5.425 8.825 6.325ZM19.05 20.375C19.1333 20.375 19.2083 20.3417 19.275 20.275C19.3417 20.2083 19.375 20.1333 19.375 20.05V7.75C19.375 7.68333 19.3417 7.61667 19.275 7.55C19.2083 7.48333 19.1333 7.45 19.05 7.45H4.95C4.86667 7.45 4.79167 7.48333 4.725 7.55C4.65833 7.61667 4.625 7.68333 4.625 7.75V20.05C4.625 20.1333 4.65833 20.2083 4.725 20.275C4.79167 20.3417 4.86667 20.375 4.95 20.375H19.05ZM12 12.95C13.2 12.95 14.2375 12.5167 15.1125 11.65C15.9875 10.7833 16.425 9.75 16.425 8.55H15.275C15.275 9.43333 14.95 10.2 14.3 10.85C13.65 11.5 12.8833 11.825 12 11.825C11.1167 11.825 10.35 11.5 9.7 10.85C9.05 10.2 8.725 9.43333 8.725 8.55H7.6C7.6 9.75 8.03333 10.7833 8.9 11.65C9.76667 12.5167 10.8 12.95 12 12.95ZM4.625 7.45C4.625 7.45 4.625 7.47917 4.625 7.5375C4.625 7.59583 4.625 7.66667 4.625 7.75V20.05C4.625 20.15 4.625 20.2292 4.625 20.2875C4.625 20.3458 4.625 20.375 4.625 20.375C4.625 20.375 4.625 20.3458 4.625 20.2875C4.625 20.2292 4.625 20.15 4.625 20.05V7.75C4.625 7.66667 4.625 7.59583 4.625 7.5375C4.625 7.47917 4.625 7.45 4.625 7.45Z" fill="white"/>
</svg>
