<svg width="24" height="24" viewBox="0 0 24 24" fill="none" xmlns="http://www.w3.org/2000/svg">
<path d="M12 8.94266C11.1358 8.94266 10.4006 8.6395 9.79427 8.03316C9.18793 7.42666 8.88477 6.69141 8.88477 5.82741C8.88477 4.96325 9.18793 4.228 9.79427 3.62166C10.4006 3.01516 11.1358 2.71191 12 2.71191C12.8642 2.71191 13.5994 3.01516 14.2058 3.62166C14.8121 4.228 15.1153 4.96325 15.1153 5.82741C15.1153 6.69141 14.8121 7.42666 14.2058 8.03316C13.5994 8.6395 12.8642 8.94266 12 8.94266ZM12 7.44266C12.4487 7.44266 12.8301 7.28566 13.1443 6.97166C13.4584 6.6575 13.6155 6.27608 13.6155 5.82741C13.6155 5.37858 13.4584 4.99716 13.1443 4.68316C12.8301 4.369 12.4487 4.21191 12 4.21191C11.5513 4.21191 11.1699 4.369 10.8558 4.68316C10.5416 4.99716 10.3845 5.37858 10.3845 5.82741C10.3845 6.27608 10.5416 6.6575 10.8558 6.97166C11.1699 7.28566 11.5513 7.44266 12 7.44266ZM10.9213 20.0562L6.26927 15.4042C5.97443 15.1093 5.75327 14.7744 5.60577 14.3994C5.45843 14.0244 5.38477 13.6147 5.38477 13.1702C5.38477 12.2958 5.6851 11.5586 6.28577 10.9584C6.8866 10.3582 7.62468 10.0582 8.50002 10.0582C8.92852 10.0582 9.32377 10.1386 9.68577 10.2994C10.0478 10.4604 10.3794 10.6915 10.6808 10.9927L12 12.3119L13.3193 10.9927C13.6141 10.6978 13.9448 10.4683 14.3115 10.3042C14.6782 10.1402 15.0758 10.0582 15.5043 10.0582C16.3758 10.0582 17.1122 10.3582 17.7135 10.9584C18.3147 11.5586 18.6153 12.2958 18.6153 13.1702C18.6153 13.6147 18.5416 14.0244 18.3943 14.3994C18.2468 14.7744 18.0256 15.1093 17.7308 15.4042L13.0788 20.0562C12.9238 20.2113 12.7533 20.3261 12.5673 20.4004C12.3814 20.4747 12.1923 20.5119 12 20.5119C11.8077 20.5119 11.6186 20.4747 11.4328 20.4004C11.2468 20.3261 11.0763 20.2113 10.9213 20.0562ZM12 18.9967L16.6463 14.3504C16.8091 14.1876 16.928 14.0055 17.003 13.8042C17.078 13.603 17.1155 13.3943 17.1155 13.1782C17.1155 12.7462 16.961 12.3682 16.652 12.0442C16.343 11.7202 15.9587 11.5582 15.499 11.5582C15.2868 11.5582 15.0951 11.5901 14.9238 11.6539C14.7523 11.7179 14.5853 11.8321 14.423 11.9964L12 14.4197L9.59627 12.0157C9.48543 11.9013 9.34235 11.7965 9.16702 11.7012C8.99152 11.6058 8.7706 11.5582 8.50427 11.5582C8.04243 11.5582 7.65702 11.7193 7.34802 12.0417C7.03902 12.3642 6.88452 12.7403 6.88452 13.1702C6.88452 13.3852 6.9246 13.5898 7.00477 13.7842C7.08493 13.9783 7.20127 14.1568 7.35377 14.3197L12 18.9967Z" fill="white"/>
</svg>
