<svg width="20" height="21" viewBox="0 0 20 21" fill="none" xmlns="http://www.w3.org/2000/svg">
<path d="M2 18.75V19.25C2 19.4625 1.92813 19.6406 1.78438 19.7844C1.64063 19.9281 1.4625 20 1.25 20H0.75C0.5375 20 0.35938 19.9281 0.21563 19.7844C0.07188 19.6406 0 19.4625 0 19.25V18.5C0 18.2875 0.07188 18.1094 0.21563 17.9656C0.35938 17.8219 0.5375 17.75 0.75 17.75H19.25C19.4625 17.75 19.6406 17.8219 19.7844 17.9656C19.9281 18.1094 20 18.2875 20 18.5V19.25C20 19.4625 19.9281 19.6406 19.7844 19.7844C19.6406 19.9281 19.4625 20 19.25 20H18.75C18.5375 20 18.3594 19.9281 18.2156 19.7844C18.0719 19.6406 18 19.4625 18 19.25V18.75H11V19.25C11 19.4625 10.9281 19.6406 10.7844 19.7844C10.6406 19.9281 10.4625 20 10.25 20H9.75C9.5375 20 9.3594 19.9281 9.2156 19.7844C9.0719 19.6406 9 19.4625 9 19.25V18.75H2Z" fill="#2843BD"/>
<path d="M2 19.6667V19C2 18.7167 1.92813 18.4792 1.78438 18.2875C1.64063 18.0959 1.4625 18 1.25 18H0.749999C0.537499 18 0.35938 18.0959 0.21563 18.2875C0.0718799 18.4792 0 18.7167 0 19V20C0 20.2833 0.0718799 20.5208 0.21563 20.7125C0.35938 20.9041 0.537499 21 0.749999 21H19.25C19.4625 21 19.6406 20.9041 19.7844 20.7125C19.9281 20.5208 20 20.2833 20 20V19C20 18.7167 19.9281 18.4792 19.7844 18.2875C19.6406 18.0959 19.4625 18 19.25 18H18.75C18.5375 18 18.3594 18.0959 18.2156 18.2875C18.0719 18.4792 18 18.7167 18 19V19.6667H11V19C11 18.7167 10.9281 18.4792 10.7844 18.2875C10.6406 18.0959 10.4625 18 10.25 18H9.74999C9.53749 18 9.35939 18.0959 9.21559 18.2875C9.07189 18.4792 8.99999 18.7167 8.99999 19V19.6667H2Z" fill="#2843BD"/>
<path d="M2.375 14C2.26875 14 2.17969 13.9281 2.10781 13.7844C2.03594 13.6406 2 13.4625 2 13.25V0.75C2 0.5375 2.03594 0.35938 2.10781 0.21563C2.17969 0.07188 2.26875 0 2.375 0H8.625C8.73125 0 8.8203 0.07188 8.8922 0.21563C8.96405 0.35938 9 0.5375 9 0.75V13.5C9 13.6417 8.97605 13.7604 8.92815 13.8562C8.8802 13.9521 8.82085 14 8.75 14H2.375ZM3 13H8V1H3V13Z" fill="#2843BD"/>
<path d="M4.7875 3.90413C4.59584 3.84027 4.5 3.76113 4.5 3.66667V0.333332C4.5 0.238886 4.59584 0.15972 4.7875 0.0958332C4.97916 0.0319468 5.21666 -5.60966e-08 5.5 -4.37114e-08C5.78334 -3.13262e-08 6.02084 0.0319468 6.2125 0.0958333C6.40416 0.15972 6.5 0.238886 6.5 0.333332V3.66667C6.5 3.76113 6.40416 3.84027 6.2125 3.90413C6.02084 3.96807 5.78334 4 5.5 4C5.21666 4 4.97916 3.96807 4.7875 3.90413Z" fill="#2843BD"/>
<path d="M11.375 14C11.2687 14 11.1797 13.9281 11.1078 13.7844C11.0359 13.6406 11 13.4625 11 13.25V0.75C11 0.5375 11.0359 0.35938 11.1078 0.21563C11.1797 0.07188 11.2687 0 11.375 0H17.625C17.7313 0 17.8203 0.07188 17.8922 0.21563C17.9641 0.35938 18 0.5375 18 0.75V13.5C18 13.6417 17.9761 13.7604 17.9282 13.8562C17.8802 13.9521 17.8209 14 17.75 14H11.375ZM12 13H17V1H12V13Z" fill="#2843BD"/>
<path d="M13.7875 3.90413C13.5958 3.84027 13.5 3.76113 13.5 3.66667V0.333332C13.5 0.238886 13.5958 0.15972 13.7875 0.0958332C13.9792 0.0319468 14.2167 -5.60966e-08 14.5 -4.37114e-08C14.7833 -3.13262e-08 15.0208 0.0319468 15.2125 0.0958333C15.4042 0.15972 15.5 0.238886 15.5 0.333332V3.66667C15.5 3.76113 15.4042 3.84027 15.2125 3.90413C15.0208 3.96807 14.7833 4 14.5 4C14.2167 4 13.9792 3.96807 13.7875 3.90413Z" fill="#2843BD"/>
</svg>
