<svg width="16" height="18" viewBox="0 0 16 18" fill="none" xmlns="http://www.w3.org/2000/svg">
<path d="M9.025 12.375C9.925 12.375 10.6875 12.0625 11.3125 11.4375C11.9375 10.8125 12.25 10.05 12.25 9.14995C12.25 8.24995 11.9375 7.49162 11.3125 6.87495C10.6875 6.25828 9.925 5.94995 9.025 5.94995C8.125 5.94995 7.3667 6.25828 6.75 6.87495C6.13333 7.49162 5.825 8.24995 5.825 9.14995C5.825 10.05 6.13333 10.8125 6.75 11.4375C7.3667 12.0625 8.125 12.375 9.025 12.375ZM9.05 11.225C8.4667 11.225 7.9708 11.025 7.5625 10.625C7.1542 10.225 6.95 9.73328 6.95 9.14995C6.95 8.56662 7.1542 8.07495 7.5625 7.67495C7.9708 7.27495 8.4583 7.07495 9.025 7.07495C9.6083 7.07495 10.1042 7.27495 10.5125 7.67495C10.9208 8.07495 11.125 8.56662 11.125 9.14995C11.125 9.73328 10.9208 10.225 10.5125 10.625C10.1042 11.025 9.6167 11.225 9.05 11.225ZM15.375 17.35C15.375 17.3167 15.375 17.2875 15.375 17.2625C15.375 17.2375 15.375 17.2 15.375 17.15C14.4417 16.3167 13.4375 15.6875 12.3625 15.2625C11.2875 14.8375 10.1667 14.625 9 14.625C7.85 14.625 6.73333 14.8375 5.65 15.2625C4.56667 15.6875 3.55833 16.3083 2.625 17.125C2.625 17.175 2.625 17.2125 2.625 17.2374C2.625 17.2624 2.625 17.3 2.625 17.35H15.375Z" fill="#2843BD"/>
<path d="M4.575 6.075L4.4 5.3C4.21667 5.25 4.025 5.15833 3.825 5.025C3.625 4.89167 3.46667 4.75 3.35 4.6L2.4 4.975L1.975 4.25L2.75 3.65C2.71666 3.56667 2.6875 3.47083 2.6625 3.3625C2.6375 3.25417 2.625 3.14167 2.625 3.025C2.625 2.925 2.6375 2.82083 2.6625 2.7125C2.6875 2.60417 2.71666 2.5 2.75 2.4L1.975 1.825L2.4 1.1L3.35 1.475C3.46667 1.30833 3.625 1.15833 3.825 1.025C4.025 0.89167 4.21667 0.80833 4.4 0.775L4.575 0H5.375L5.525 0.775C5.70833 0.80833 5.90417 0.89167 6.1125 1.025C6.32083 1.15833 6.48333 1.30833 6.6 1.475L7.525 1.1L7.95 1.825L7.175 2.4C7.20833 2.5 7.2375 2.60417 7.2625 2.7125C7.2875 2.82083 7.3 2.925 7.3 3.025C7.3 3.14167 7.2875 3.25417 7.2625 3.3625C7.2375 3.47083 7.20833 3.56667 7.175 3.65L7.95 4.25L7.525 4.975L6.6 4.6C6.48333 4.75 6.32083 4.89167 6.1125 5.025C5.90417 5.15833 5.70833 5.25 5.525 5.3L5.375 6.075H4.575ZM4.975 4.5C5.39167 4.5 5.7375 4.3625 6.0125 4.0875C6.2875 3.8125 6.425 3.45833 6.425 3.025C6.425 2.60833 6.2875 2.2625 6.0125 1.9875C5.7375 1.7125 5.39167 1.575 4.975 1.575C4.54167 1.575 4.1875 1.7125 3.9125 1.9875C3.6375 2.2625 3.5 2.60833 3.5 3.025C3.5 3.45833 3.6375 3.8125 3.9125 4.0875C4.1875 4.3625 4.54167 4.5 4.975 4.5ZM1.9 11.6L1.875 10.9C1.75833 10.8333 1.62917 10.7583 1.4875 10.675C1.34583 10.5917 1.225 10.5 1.125 10.4L0.475001 10.75L0 10.025L0.650001 9.6C0.616671 9.53333 0.595831 9.4625 0.587501 9.3875C0.579171 9.3125 0.575001 9.24167 0.575001 9.175C0.575001 9.10833 0.579171 9.04583 0.587501 8.9875C0.595831 8.92917 0.616671 8.85833 0.650001 8.775L0 8.325L0.475001 7.6L1.125 7.95C1.24167 7.86667 1.36666 7.77917 1.5 7.6875C1.63333 7.59583 1.75833 7.525 1.875 7.475L1.9 6.75H2.8L2.825 7.475C2.95833 7.525 3.09167 7.59583 3.225 7.6875C3.35833 7.77917 3.48333 7.86667 3.6 7.95L4.225 7.6L4.725 8.325L4.075 8.775C4.10833 8.85833 4.125 8.92917 4.125 8.9875C4.125 9.04583 4.125 9.10833 4.125 9.175C4.125 9.24167 4.125 9.3125 4.125 9.3875C4.125 9.4625 4.10833 9.53333 4.075 9.6L4.725 10.025L4.225 10.75L3.6 10.4C3.5 10.5 3.37917 10.5917 3.2375 10.675C3.09583 10.7583 2.95833 10.8333 2.825 10.9L2.8 11.6H1.9ZM2.35 10.15C2.63333 10.15 2.86667 10.0583 3.05 9.875C3.23333 9.69167 3.325 9.45833 3.325 9.175C3.325 8.90833 3.23333 8.67917 3.05 8.4875C2.86667 8.29583 2.63333 8.2 2.35 8.2C2.08333 8.2 1.85417 8.29583 1.6625 8.4875C1.47083 8.67917 1.375 8.90833 1.375 9.175C1.375 9.45833 1.47083 9.69167 1.6625 9.875C1.85417 10.0583 2.08333 10.15 2.35 10.15Z" fill="#2843BD"/>
</svg>
