<?xml version="1.0" encoding="UTF-8"?>
<svg id="b" data-name="Camada 2" xmlns="http://www.w3.org/2000/svg" xmlns:xlink="http://www.w3.org/1999/xlink" viewBox="0 0 808.24 470.6">
  <defs>
    <style>
      .f {
        fill: #002080;
      }

      .g {
        fill: #005bc7;
      }

      .h {
        fill: #fff;
      }

      .i {
        fill: none;
      }

      .j {
        fill: #0075ff;
      }

      .k {
        clip-path: url(#e);
      }

      .l {
        opacity: .7;
      }

      .m {
        fill: #001966;
      }

      .n {
        fill: #f9fafa;
      }
    </style>
    <clipPath id="e">
      <rect class="i" x="551.65" y="191.5" width="37.9" height="33.13"/>
    </clipPath>
  </defs>
  <g id="c" data-name="Camada 1">
    <path class="g" d="M237.14,320.71c.34.02.68.03,1.01.03,23.58,0,44.93-9.54,60.39-24.97l106,106c-42.6,42.52-101.43,68.82-166.4,68.82-.34,0-.68,0-1.01,0v-149.89Z"/>
    <path class="f" d="M509.69,174.81c-.25.23-.5.46-.74.7-16.67,16.67-25.02,38.51-25.05,60.36h-149.91c.05-60.19,23.05-120.38,69-166.32.24-.24.48-.48.72-.72l105.99,105.99Z"/>
    <path class="g" d="M297.39,296.59c.25-.23.5-.46.74-.7,16.67-16.67,25.02-38.51,25.05-60.36h149.91c-.06,60.19-23.05,120.38-69,166.32-.24.24-.48.48-.72.72l-105.99-105.99Z"/>
    <path class="f" d="M510.56,295.76c-.25-.23-.5-.46-.74-.7-16.67-16.67-25.02-38.51-25.05-60.36h-149.91c.05,60.19,23.05,120.38,69,166.32.24.24.48.48.72.72l105.99-105.99Z"/>
    <path class="g" d="M236.34,149.92c-.34-.01-.68-.03-1.01-.03-23.58,0-44.93,9.54-60.39,24.97l-106-106C111.53,26.33,170.36.03,235.33.03c.34,0,.68,0,1.01,0v149.89Z"/>
    <path class="j" d="M175.7,173.72c-.25.23-.5.46-.74.69-16.67,16.67-25.02,38.51-25.05,60.36H0c.06-60.19,23.05-120.38,69-166.32.24-.24.48-.48.72-.72l105.99,105.99Z"/>
    <path class="j" d="M237.14,320.71c-.34.02-.68.03-1.01.03-23.58,0-44.93-9.54-60.39-24.97l-106,106c42.6,42.52,101.43,68.82,166.4,68.82.34,0,.68,0,1.01,0v-149.89Z"/>
    <path class="g" d="M175.7,295.83c-.25-.23-.5-.46-.74-.7-16.67-16.67-25.02-38.51-25.05-60.36H0c.06,60.19,23.05,120.38,69,166.32.24.24.48.48.72.72l105.99-105.99Z"/>
    <path class="j" d="M236.34,149.92c.34-.01.68-.03,1.01-.03,23.58,0,44.93,9.54,60.39,24.97l106-106C361.15,26.33,302.33.03,237.36.03c-.34,0-.68,0-1.01,0v149.89Z"/>
    <path class="g" d="M297.64,174.81c.25.23.5.46.74.69,16.67,16.67,25.02,38.51,25.05,60.36h149.91c-.06-60.19-23.05-120.38-69-166.32-.24-.24-.48-.48-.72-.72l-105.99,105.99Z"/>
    <path class="f" d="M571.11,149.89c-.34-.01-.68-.03-1.02-.03-23.58,0-44.93,9.54-60.39,24.97l-106-106C446.3,26.3,505.13,0,570.1,0c.34,0,.68,0,1.02,0v149.89Z"/>
    <path class="m" d="M571.88,320.59c-.34.02-.68.03-1.02.03-23.58,0-44.93-9.54-60.39-24.97l-106,106c42.6,42.52,101.42,68.82,166.4,68.82.34,0,.68,0,1.02,0v-149.89Z"/>
    <path class="f" d="M571.14,320.59c.34.02.68.03,1.01.03,23.58,0,44.93-9.54,60.39-24.97l106,106c-42.6,42.52-101.43,68.82-166.4,68.82-.34,0-.68,0-1.01,0v-149.89Z"/>
    <path class="m" d="M632.54,295.76c.25-.23.5-.46.74-.7,16.67-16.67,25.02-38.51,25.05-60.36h149.91c-.05,60.19-23.05,120.38-69,166.32-.24.24-.48.48-.72.72l-105.99-105.99Z"/>
    <path class="m" d="M571.11,149.89c.34-.01.68-.03,1.01-.03,23.58,0,44.93,9.54,60.39,24.97l106-106C695.92,26.3,637.1,0,572.13,0c-.34,0-.68,0-1.01,0v149.89Z"/>
    <path class="f" d="M632.54,174.84c.25.23.5.46.74.69,16.67,16.67,25.02,38.51,25.05,60.36h149.91c-.05-60.19-23.05-120.38-69-166.32-.24-.24-.48-.48-.72-.72l-105.99,105.99Z"/>
    <g class="l">
      <path class="n" d="M608.38,382.23c80.82-21.43,128.95-104.28,107.51-185.05-21.44-80.77-104.34-128.88-185.16-107.44-80.82,21.43-128.95,104.28-107.51,185.05,21.44,80.77,104.34,128.88,185.16,107.44Z"/>
    </g>
    <path class="f" d="M595.58,330.22c51.99-13.79,82.96-67.09,69.16-119.05-13.79-51.96-67.13-82.91-119.12-69.12-51.99,13.79-82.96,67.09-69.16,119.05,13.79,51.96,67.13,82.91,119.12,69.12Z"/>
    <g class="l">
      <path class="n" d="M275.38,381.84c80.82-21.43,128.95-104.28,107.51-185.05-21.44-80.77-104.34-128.87-185.16-107.44-80.82,21.43-128.95,104.28-107.51,185.05s104.34,128.88,185.16,107.44Z"/>
    </g>
    <path class="g" d="M261.43,330.22c51.99-13.79,82.96-67.09,69.16-119.05-13.8-51.96-67.13-82.91-119.12-69.12-51.99,13.79-82.96,67.09-69.16,119.05,13.79,51.96,67.13,82.91,119.12,69.12Z"/>
    <g>
      <path class="n" d="M186.69,256.34v-46.11h30.79v8.35h-21.27v10.46h20.04v8.35h-20.04v10.58h21.27v8.35h-30.79Z"/>
      <path class="n" d="M222.88,256.34v-46.11h17.52c3.15,0,5.94.56,8.36,1.67,2.46,1.11,4.38,2.76,5.78,4.95,1.39,2.19,2.09,4.89,2.09,8.11s-.72,5.82-2.15,8.05c-1.43,2.19-3.36,3.84-5.78,4.95l10.45,18.38h-10.69l-11.31-20.36,6.15,3.65h-10.88v16.71h-9.53ZM232.41,231.28h8.05c1.35,0,2.52-.27,3.5-.8.98-.54,1.74-1.28,2.27-2.23.57-.95.86-2.04.86-3.28s-.29-2.39-.86-3.34c-.53-.95-1.29-1.69-2.27-2.23-.98-.54-2.15-.81-3.5-.81h-8.05v12.69Z"/>
      <path class="n" d="M263.88,256.34v-46.11h17.58c3.16,0,5.94.56,8.36,1.67,2.46,1.11,4.38,2.76,5.78,4.95,1.39,2.19,2.09,4.89,2.09,8.11s-.72,5.8-2.15,7.98c-1.39,2.19-3.32,3.86-5.78,5.01-2.42,1.11-5.18,1.67-8.3,1.67h-8.05v16.71h-9.53ZM273.41,231.28h8.11c1.35,0,2.52-.27,3.5-.8.98-.54,1.74-1.28,2.27-2.23.57-.95.86-2.04.86-3.28s-.29-2.39-.86-3.34c-.53-.95-1.29-1.69-2.27-2.23-.98-.54-2.15-.81-3.5-.81h-8.11v12.69Z"/>
    </g>
    <text/>
    <g>
      <path class="h" d="M474.04,81.07l-9.4-16.55,7-3.97c1.14-.65,2.23-1.01,3.26-1.09,1.03-.08,1.97.12,2.81.59.84.47,1.55,1.22,2.13,2.24.41.73.61,1.53.58,2.42-.02.89-.37,1.81-1.04,2.78l-.96-1.69c1.07-.15,1.97-.13,2.71.07.74.2,1.36.53,1.85.99.49.45.91.99,1.26,1.59.93,1.63,1.1,3.2.54,4.72-.57,1.52-1.82,2.82-3.74,3.92l-7,3.97ZM471.62,68.78l3.8-2.16c.53-.3.87-.7,1.02-1.18.15-.48.08-.98-.21-1.48-.29-.5-.67-.82-1.17-.94-.49-.12-1-.03-1.54.27l-3.8,2.16,1.89,3.33ZM475.78,76.11l3.95-2.25c.7-.4,1.14-.91,1.33-1.55.19-.64.1-1.27-.26-1.91-.37-.65-.88-1.06-1.52-1.22-.64-.16-1.31-.05-2.01.35l-3.95,2.25,2.46,4.33Z"/>
      <path class="h" d="M488.67,72.91l-7.89-17.32,6.65-3.03c1.19-.54,2.35-.82,3.46-.82,1.11,0,2.12.29,3.02.87.9.58,1.63,1.48,2.18,2.68.54,1.18.72,2.3.56,3.36-.16,1.07-.61,2.02-1.33,2.87-.73.85-1.68,1.54-2.86,2.07l-3.04,1.39,2.86,6.28-3.6,1.64ZM487.98,61.86l3.07-1.4c.51-.23.91-.53,1.19-.91.28-.37.45-.78.49-1.23.05-.45-.04-.91-.25-1.37-.22-.48-.51-.85-.88-1.11s-.79-.41-1.25-.44c-.46-.03-.95.07-1.46.3l-3.07,1.4,2.17,4.77Z"/>
      <path class="h" d="M502.87,66.39l-6.05-18.04,3.63-1.22,9.76,6.69-1.7.57,3.56-11.16,3.63-1.22,6.06,18.04-3.75,1.26-4.66-13.9,1.62-.16-3.94,11.29-.48.16-9.71-6.71,1.15-.76,4.66,13.9-3.75,1.26Z"/>
      <path class="h" d="M619.23,60.19l5.67-18.16,12.21,3.81-1.03,3.29-8.44-2.64-1.29,4.12,7.95,2.48-1.03,3.29-7.95-2.48-1.3,4.17,8.44,2.64-1.03,3.29-12.21-3.82Z"/>
      <path class="h" d="M631.5,63.92l13.21-15.14,4.86,2.01-1.31,20.05-3.99-1.65.3-4.08-6.44-2.66-2.66,3.1-3.97-1.64ZM640.45,59.69l4.42,1.82.74-9.42.99.41-6.14,7.19Z"/>
      <path class="h" d="M649.13,71.2l9.13-16.69,3.36,1.84,1.72,11.71-1.57-.86,10.61-4.97,3.36,1.84-9.13,16.69-3.47-1.9,7.04-12.86,1.22,1.07-10.97,4.77-.45-.25-1.67-11.69,1.34.32-7.04,12.86-3.47-1.9Z"/>
      <path class="h" d="M730.64,148.51l16.99-8.58,5.77,11.42-3.08,1.55-3.98-7.89-3.85,1.95,3.75,7.43-3.08,1.56-3.75-7.43-3.9,1.97,3.98,7.89-3.08,1.55-5.77-11.42Z"/>
      <path class="h" d="M739.33,167.82c-.45-1.1-.67-2.22-.66-3.36,0-1.13.24-2.2.7-3.21.46-1,1.12-1.88,1.99-2.64l2.57,2.46c-.78.83-1.29,1.75-1.53,2.76-.24,1-.16,1.98.22,2.93.21.5.46.91.77,1.21.3.3.64.49,1,.59.36.09.73.06,1.11-.09.41-.17.71-.44.9-.81s.26-.86.22-1.47l-.27-3.92c-.11-1.59.11-2.91.67-3.96.55-1.05,1.43-1.82,2.61-2.3,1.04-.42,2.06-.54,3.06-.34,1,.19,1.9.66,2.72,1.41s1.47,1.72,1.96,2.92c.43,1.06.64,2.11.65,3.16s-.2,2.03-.59,2.96c-.4.92-1,1.74-1.79,2.45l-2.56-2.44c.69-.66,1.13-1.42,1.32-2.27.2-.85.12-1.7-.22-2.55-.2-.49-.45-.89-.76-1.21-.31-.32-.66-.52-1.03-.6-.38-.09-.75-.05-1.13.1-.41.17-.72.45-.91.84-.2.39-.28.89-.23,1.5l.28,3.83c.12,1.61-.09,2.93-.63,3.96-.54,1.03-1.39,1.79-2.58,2.27-1.03.42-2.05.52-3.06.3-1.01-.21-1.94-.7-2.77-1.46-.83-.76-1.5-1.76-2-3Z"/>
      <path class="h" d="M745.18,184.62c-.39-1.31-.51-2.59-.38-3.86s.5-2.45,1.1-3.55c.59-1.1,1.39-2.06,2.4-2.87,1-.81,2.18-1.42,3.53-1.83,1.36-.4,2.68-.55,3.96-.43,1.29.11,2.47.46,3.56,1.04s2.03,1.36,2.83,2.34,1.39,2.13,1.79,3.45c.39,1.32.53,2.58.4,3.76-.13,1.18-.45,2.25-.96,3.21s-1.18,1.72-1.98,2.3l-2.61-2.87c.79-.57,1.36-1.33,1.71-2.28.35-.95.36-1.98.03-3.09-.32-1.08-.86-1.95-1.6-2.61-.75-.67-1.64-1.09-2.66-1.27-1.02-.18-2.13-.1-3.32.26-1.19.35-2.17.9-2.92,1.64-.76.74-1.27,1.6-1.53,2.57-.26.97-.23,2,.09,3.08.25.83.64,1.56,1.17,2.2.54.63,1.17,1.08,1.91,1.35.74.27,1.53.28,2.38.02l1.52-.45-.95,2.17-1.97-6.61,3.18-.95,2.58,8.67-1.93.58c-1.49.44-2.85.58-4.1.42-1.25-.16-2.36-.55-3.33-1.15-.97-.61-1.79-1.37-2.44-2.29-.65-.92-1.14-1.9-1.45-2.94Z"/>
    </g>
    <g>
      <path class="h" d="M392.29,329.68l3.37-1.82,1.82,3.37-3.37,1.82-1.82-3.37Z"/>
      <path class="h" d="M397.66,339.23l3.27-2,2,3.27-3.27,2-2-3.27Z"/>
      <path class="h" d="M403.52,348.44l3.16-2.17,2.17,3.16-3.16,2.17-2.17-3.16Z"/>
      <path class="h" d="M469.74,410.56c-1.24-.71-2.26-1.58-3.08-2.62s-1.39-2.17-1.74-3.4c-.34-1.23-.44-2.49-.29-3.77.15-1.29.58-2.54,1.27-3.75.7-1.21,1.56-2.21,2.59-2.99,1.03-.78,2.16-1.33,3.39-1.65,1.23-.32,2.5-.38,3.8-.2,1.31.18,2.59.63,3.84,1.35,1.25.72,2.29,1.6,3.1,2.63.81,1.04,1.4,2.17,1.74,3.39s.44,2.47.28,3.76c-.16,1.28-.59,2.53-1.28,3.74-.7,1.21-1.56,2.21-2.6,2.99s-2.17,1.33-3.4,1.65c-1.23.32-2.5.39-3.81.21-1.31-.18-2.58-.62-3.82-1.34ZM471.52,407.46c.75.43,1.53.7,2.32.8.79.1,1.57.05,2.33-.15.76-.2,1.47-.56,2.11-1.07.65-.51,1.2-1.17,1.66-1.96.46-.8.74-1.6.85-2.41.11-.81.06-1.6-.14-2.36-.21-.77-.56-1.46-1.05-2.09-.49-.63-1.11-1.16-1.87-1.59s-1.52-.7-2.31-.81c-.79-.11-1.57-.06-2.33.15-.76.21-1.47.56-2.11,1.07-.64.5-1.19,1.16-1.65,1.95-.46.8-.75,1.61-.86,2.42-.12.82-.07,1.61.14,2.36s.56,1.46,1.05,2.09c.49.63,1.11,1.17,1.86,1.6ZM472.24,414.29l.03-11.41,3.54,2.03.04,11.45-3.6-2.07Z"/>
      <path class="h" d="M482.23,417.09l7.43-17.52,3.52,1.49,2.85,11.48-1.64-.7,10.05-6,3.52,1.49-7.43,17.52-3.64-1.54,5.73-13.5,1.32.95-10.43,5.84-.47-.2-2.81-11.46,1.36.19-5.73,13.5-3.64-1.54Z"/>
      <path class="h" d="M511.24,428.52c-1.14-.35-2.14-.88-3.01-1.61-.87-.72-1.55-1.58-2.04-2.56-.49-.99-.75-2.06-.79-3.21l3.52-.44c.15,1.13.54,2.11,1.17,2.92.63.82,1.43,1.37,2.41,1.67.52.16.99.21,1.42.17.42-.05.78-.18,1.08-.4.3-.22.51-.53.63-.92.13-.42.11-.82-.06-1.21-.17-.38-.5-.75-1-1.1l-3.2-2.26c-1.3-.92-2.18-1.92-2.65-3.02-.46-1.1-.51-2.25-.13-3.47.33-1.08.88-1.94,1.66-2.59s1.71-1.06,2.8-1.22c1.09-.16,2.25-.06,3.49.32,1.09.33,2.04.83,2.85,1.49.81.66,1.45,1.43,1.91,2.32.46.89.72,1.87.77,2.93l-3.5.45c-.08-.95-.39-1.77-.92-2.46-.54-.69-1.24-1.17-2.12-1.44-.5-.15-.98-.21-1.42-.17s-.81.18-1.12.42-.52.55-.63.94c-.13.42-.11.83.07,1.24.18.4.52.78,1.02,1.13l3.14,2.19c1.32.92,2.21,1.92,2.67,2.98.46,1.07.51,2.21.13,3.43-.33,1.06-.89,1.91-1.69,2.57-.8.65-1.76,1.06-2.87,1.23-1.11.17-2.3.05-3.59-.34Z"/>
      <path class="h" d="M617.02,431.65l-5.02-18.35,7.03-1.92c1.26-.34,2.44-.43,3.54-.25,1.1.18,2.04.62,2.84,1.34.79.72,1.37,1.72,1.72,3,.34,1.25.35,2.38.02,3.41-.33,1.03-.92,1.9-1.77,2.62-.85.72-1.9,1.25-3.14,1.59l-3.22.88,1.82,6.65-3.81,1.04ZM618.1,420.63l3.25-.89c.54-.15.98-.38,1.31-.7.33-.32.56-.7.68-1.14.12-.44.11-.9-.02-1.4-.14-.51-.37-.92-.7-1.24s-.71-.53-1.16-.64c-.45-.11-.95-.08-1.49.06l-3.25.89,1.38,5.05Z"/>
      <path class="h" d="M633.67,426.88l-6.47-17.9,3.72-1.34,5.3,14.65,7.55-2.73,1.17,3.24-11.27,4.07Z"/>
      <path class="h" d="M647.71,421.82l-8.18-17.18,3.45-1.64,10.48,5.48-1.61.77,2.17-11.5,3.45-1.64,8.18,17.18-3.57,1.7-6.3-13.24,1.58-.36-2.54,11.68-.46.22-10.44-5.5,1.04-.89,6.3,13.24-3.57,1.7Z"/>
      <path class="h" d="M741.84,341.57l-16.5-9.48,3.63-6.32c.65-1.13,1.43-2.02,2.33-2.67s1.89-1,2.96-1.05c1.07-.05,2.18.25,3.33.92,1.12.64,1.93,1.45,2.42,2.4.49.96.69,1.99.59,3.1-.1,1.11-.47,2.23-1.11,3.34l-1.66,2.89,5.98,3.44-1.97,3.43ZM734.84,332.99l1.68-2.92c.28-.49.42-.96.43-1.43.01-.46-.1-.89-.32-1.29-.22-.39-.56-.72-1-.97-.46-.26-.91-.39-1.37-.39-.45,0-.88.13-1.27.37-.39.24-.73.61-1.01,1.09l-1.68,2.92,4.54,2.61Z"/>
      <path class="h" d="M750.35,326.4l-17.26-8.02,3.07-6.61c.55-1.19,1.25-2.14,2.09-2.86.84-.72,1.79-1.16,2.86-1.3,1.06-.14,2.2.06,3.4.62,1.17.54,2.05,1.27,2.62,2.19.57.91.86,1.93.86,3.04,0,1.12-.28,2.26-.82,3.43l-1.41,3.03,6.25,2.91-1.67,3.58ZM742.63,318.46l1.42-3.05c.24-.51.34-.99.31-1.46-.03-.46-.17-.88-.43-1.25-.26-.37-.62-.67-1.08-.88-.48-.22-.94-.31-1.4-.27s-.86.2-1.24.48-.68.67-.91,1.18l-1.42,3.05,4.75,2.21Z"/>
      <path class="h" d="M757.71,310.43l-17.99-6.19,1.24-3.61,11.25-3.65-.58,1.69-6.69-9.6,1.24-3.62,18,6.19-1.29,3.74-13.86-4.77.85-1.38,6.56,9.99-.17.48-11.23,3.6.09-1.37,13.87,4.77-1.29,3.74Z"/>
    </g>
    <g>
      <path class="h" d="M60.11,211.35l-18.36-3.15,2.16-12.57,3.33.57-1.5,8.75,4.66.8,1.29-7.52,3.33.57-1.29,7.52,7.05,1.21-.66,3.82Z"/>
      <path class="h" d="M48.14,194.38l-3.65-.84.84-3.65,3.65.84-.84,3.65ZM62.64,197.73l-13.3-3.07.84-3.65,13.3,3.07-.84,3.65Z"/>
      <path class="h" d="M63.92,191.9l-13.1-3.83.98-3.36,2.59.76-.63.02c-.69-.53-1.13-1.19-1.31-1.98-.18-.79-.13-1.64.13-2.55.29-.99.75-1.8,1.38-2.42.63-.62,1.38-1.03,2.25-1.23.87-.2,1.79-.15,2.79.14l8.42,2.46-1.05,3.6-7.65-2.24c-.51-.15-.98-.18-1.41-.09-.43.09-.8.29-1.11.59-.31.3-.54.69-.68,1.17-.14.46-.15.91-.05,1.34.1.43.31.8.62,1.1.31.31.72.54,1.23.69l7.66,2.24-1.05,3.6Z"/>
      <path class="h" d="M69.78,174.41c-.35.92-.8,1.66-1.35,2.22s-1.17.91-1.86,1.06-1.42.08-2.18-.21c-.72-.27-1.29-.68-1.72-1.21-.43-.54-.7-1.22-.82-2.04-.12-.82-.06-1.77.17-2.84l.85-4.14,2.57.98-.66,3.49c-.1.53-.08.98.04,1.33.12.35.4.61.82.77.39.15.75.12,1.08-.1.33-.21.58-.54.74-.97.22-.58.29-1.13.2-1.66-.08-.53-.29-1-.63-1.4-.34-.4-.76-.7-1.28-.9l-3.32-1.26c-.48-.18-.96-.15-1.43.11-.47.26-.83.71-1.08,1.37-.24.62-.27,1.24-.11,1.84.16.61.48,1.12.96,1.55l-2.4,2.3c-.62-.52-1.09-1.15-1.39-1.89-.31-.74-.46-1.55-.45-2.42,0-.87.18-1.76.53-2.66.41-1.08.96-1.95,1.67-2.63.7-.68,1.49-1.11,2.36-1.31.87-.2,1.76-.12,2.68.23l8.41,3.2-1.24,3.27-2.06-.78.16-.85c.42.59.73,1.18.92,1.77.19.59.28,1.2.24,1.83-.03.63-.18,1.29-.44,1.97Z"/>
      <path class="h" d="M72.98,165.33l-12.34-5.83,1.5-3.16,2.44,1.15-.63-.08c-.6-.63-.93-1.36-.98-2.17-.05-.81.13-1.64.53-2.5.44-.93,1.02-1.66,1.75-2.17.72-.51,1.53-.8,2.41-.86.89-.06,1.8.13,2.73.57l7.93,3.75-1.6,3.39-7.21-3.41c-.48-.23-.94-.33-1.38-.31-.44.03-.83.16-1.19.41-.36.25-.64.59-.85,1.05-.21.44-.29.88-.26,1.31.03.44.18.83.44,1.19.26.35.63.64,1.11.87l7.21,3.41-1.6,3.39Z"/>
      <path class="h" d="M82.74,146.83c-.68,1.18-1.56,2.09-2.65,2.73-1.09.64-2.26.96-3.52.98-1.26.02-2.47-.31-3.64-.98s-2.06-1.55-2.68-2.64c-.62-1.08-.92-2.26-.9-3.52.01-1.26.36-2.48,1.04-3.67.51-.88,1.13-1.61,1.86-2.19.74-.58,1.53-.98,2.38-1.2.85-.22,1.71-.24,2.58-.05l-.41,3.52c-.71-.14-1.38-.06-2,.22-.62.29-1.12.75-1.49,1.38-.32.56-.47,1.14-.45,1.74.02.6.2,1.17.55,1.7.35.54.84.99,1.47,1.35.64.37,1.27.56,1.91.59.64.03,1.22-.1,1.75-.38.53-.28.96-.71,1.28-1.27.37-.65.52-1.31.45-1.99-.07-.68-.35-1.29-.82-1.83l2.86-2.11c.57.62.97,1.35,1.21,2.2.24.85.3,1.74.18,2.67-.12.93-.44,1.84-.96,2.74Z"/>
      <path class="h" d="M90.43,134.67c-.82,1.2-1.8,2.05-2.93,2.56-1.13.52-2.31.71-3.53.57-1.22-.13-2.38-.57-3.46-1.32-1.13-.77-1.96-1.71-2.49-2.82-.53-1.11-.76-2.26-.69-3.46.08-1.2.49-2.34,1.22-3.41.61-.89,1.3-1.58,2.05-2.08.75-.49,1.55-.8,2.38-.93.84-.12,1.67-.08,2.51.13.84.21,1.64.59,2.43,1.12.22.15.43.31.63.48s.35.33.47.49l-5.79,8.42-2.26-1.56,4.59-6.67.07,2.2c-.5-.54-1.03-.9-1.59-1.06-.56-.17-1.11-.15-1.64.04s-.98.56-1.36,1.11c-.37.54-.55,1.09-.56,1.65,0,.56.18,1.12.56,1.66.38.54.94,1.04,1.7,1.5.59.49,1.2.8,1.82.92.62.12,1.21.07,1.77-.17s1.05-.66,1.46-1.27c.38-.55.59-1.09.64-1.64.05-.54-.04-1.06-.28-1.54l2.88-1.66c.4.6.64,1.28.73,2.03s.02,1.54-.2,2.34-.59,1.59-1.12,2.35Z"/>
      <path class="h" d="M124.6,97.12l-11.21-14.88,5.71-4.3c1.02-.77,2.07-1.28,3.13-1.51,1.06-.24,2.09-.17,3.07.19.98.36,1.87,1.07,2.65,2.1.76,1.01,1.18,2.04,1.25,3.09.07,1.05-.15,2.06-.67,3.02-.52.96-1.28,1.83-2.29,2.59l-2.62,1.97,4.06,5.39-3.09,2.33ZM121.61,86.7l2.64-1.99c.44-.33.75-.7.94-1.12.19-.41.26-.84.21-1.28-.05-.44-.23-.86-.53-1.26-.31-.41-.67-.7-1.08-.88-.41-.17-.84-.22-1.29-.16-.45.07-.89.27-1.33.6l-2.64,1.99,3.08,4.09Z"/>
      <path class="h" d="M136.99,88.05l-10.45-15.78,3.13-2.07,10.45,15.78-3.13,2.07Z"/>
      <path class="h" d="M145.77,82.82c-.85.5-1.66.79-2.44.88-.78.09-1.48-.03-2.11-.34-.63-.32-1.15-.83-1.56-1.53-.39-.66-.58-1.34-.57-2.02,0-.69.22-1.39.64-2.1.42-.71,1.06-1.41,1.91-2.1l3.26-2.69,1.39,2.38-2.71,2.3c-.41.36-.68.71-.8,1.06-.12.35-.07.72.16,1.11.21.36.51.56.9.6.39.04.79-.05,1.19-.29.53-.31.93-.7,1.2-1.17.27-.46.4-.96.39-1.49,0-.53-.15-1.03-.43-1.5l-1.79-3.07c-.26-.45-.66-.72-1.18-.81-.53-.1-1.1.03-1.7.38-.58.34-.99.79-1.24,1.36-.25.57-.33,1.18-.23,1.81l-3.31.28c-.16-.8-.12-1.58.1-2.35s.62-1.49,1.17-2.16c.55-.67,1.25-1.25,2.08-1.74.99-.58,1.98-.91,2.95-1,.97-.09,1.86.07,2.66.46.8.39,1.45,1.01,1.94,1.86l4.54,7.77-3.02,1.76-1.11-1.9.66-.56c-.04.72-.17,1.37-.39,1.95-.22.58-.54,1.11-.96,1.58-.42.47-.95.89-1.58,1.26Z"/>
      <path class="h" d="M153.96,77.78l-5.93-12.3,3.15-1.52,1.17,2.43-.44-.45c-.07-.87.13-1.64.6-2.3.47-.66,1.13-1.2,1.99-1.61.93-.45,1.84-.65,2.72-.59.89.05,1.69.34,2.42.85.73.51,1.32,1.23,1.76,2.16l3.81,7.9-3.38,1.63-3.46-7.18c-.23-.48-.52-.85-.88-1.1-.35-.25-.75-.4-1.18-.43-.43-.03-.87.06-1.32.28-.44.21-.78.5-1.03.86-.25.36-.39.76-.41,1.2-.02.44.08.89.32,1.37l3.46,7.18-3.38,1.63Z"/>
      <path class="h" d="M166.8,71.68l-4.92-12.73,3.26-1.26.97,2.52-.4-.49c0-.88.26-1.62.78-2.25.52-.62,1.22-1.1,2.11-1.44.96-.37,1.89-.5,2.76-.37.88.12,1.66.47,2.34,1.04.68.57,1.21,1.33,1.58,2.3l3.17,8.18-3.5,1.35-2.88-7.44c-.19-.5-.46-.89-.79-1.17-.33-.28-.71-.46-1.14-.52-.43-.07-.88,0-1.34.17-.45.17-.82.43-1.1.77-.28.34-.45.73-.5,1.16-.06.43.01.9.2,1.4l2.88,7.44-3.5,1.35Z"/>
      <path class="h" d="M175.77,52.48l-1.15-3.57,3.57-1.15,1.15,3.57-3.57,1.15ZM180.33,66.64l-4.19-12.99,3.57-1.15,4.19,12.99-3.57,1.15Z"/>
      <path class="h" d="M186.01,64.75l-3.44-13.21,3.39-.88.68,2.61-.35-.53c.1-.87.45-1.58,1.03-2.14.59-.56,1.34-.96,2.26-1.19,1-.26,1.93-.28,2.79-.05.86.22,1.6.66,2.21,1.3.61.64,1.05,1.46,1.31,2.46l2.21,8.49-3.63.94-2.01-7.72c-.13-.52-.35-.93-.65-1.25-.3-.32-.66-.54-1.07-.65-.42-.11-.87-.11-1.35.02-.47.12-.86.34-1.18.64-.32.31-.53.67-.63,1.09-.1.42-.09.89.04,1.41l2.01,7.72-3.63.94Z"/>
      <path class="h" d="M207.54,65.45c-1.03.2-2.02.21-2.97.03-.95-.18-1.8-.51-2.54-1-.75-.49-1.34-1.13-1.78-1.91l3.18-1.86c.3.59.76,1.01,1.39,1.26.62.25,1.32.31,2.09.16.61-.12,1.11-.33,1.51-.63.4-.31.68-.69.83-1.16.16-.47.18-.99.07-1.57l-.59-3.07.88.75c-.32.84-.8,1.51-1.45,2.02-.65.51-1.46.85-2.42,1.04-1.24.24-2.41.17-3.5-.21-1.09-.38-2.01-1.01-2.75-1.89-.75-.88-1.24-1.96-1.48-3.22-.24-1.26-.18-2.43.19-3.51.37-1.08.99-1.99,1.85-2.73.86-.74,1.9-1.23,3.13-1.46.97-.18,1.84-.15,2.64.09.79.25,1.52.72,2.18,1.4l-.3.97-.56-2.92,3.44-.66,2.42,12.7c.23,1.18.14,2.29-.26,3.32-.4,1.03-1.04,1.91-1.93,2.62-.89.71-1.98,1.19-3.28,1.44ZM205.62,56.07c.62-.12,1.14-.35,1.55-.7s.69-.79.86-1.31c.16-.52.18-1.1.06-1.74s-.36-1.17-.71-1.61c-.35-.43-.79-.74-1.3-.92-.51-.18-1.07-.22-1.67-.1-.62.12-1.15.36-1.58.72-.43.36-.74.81-.91,1.35s-.21,1.12-.08,1.76c.12.62.36,1.15.72,1.57.36.42.81.72,1.34.9.54.18,1.11.21,1.74.09Z"/>
      <path class="h" d="M287.22,64.38l5.98-17.64,3.67,1.25-2.59,7.62,6.87,2.33,2.59-7.62,3.67,1.25-5.98,17.64-3.67-1.25,2.31-6.82-6.87-2.33-2.31,6.82-3.67-1.25Z"/>
      <path class="h" d="M303.69,70.13l7.6-17,6.51,2.91c1.17.52,2.12,1.19,2.84,2.01.72.82,1.16,1.74,1.32,2.78.16,1.04-.03,2.15-.56,3.34-.52,1.16-1.22,2.02-2.12,2.6-.9.58-1.88.87-2.97.88l.85,8.51-3.97-1.77-.84-9.39,1.68,2.37-4.04-1.8-2.75,6.16-3.54-1.58ZM311.36,62.46l2.99,1.34c.5.22.98.32,1.43.28.45-.03.86-.18,1.22-.44.36-.26.64-.62.85-1.07.21-.47.29-.93.24-1.37-.05-.44-.21-.84-.49-1.2s-.67-.65-1.17-.88l-2.99-1.34-2.09,4.68Z"/>
      <path class="h" d="M390.32,144.17l3.24-1.89,1.89,3.24-3.24,1.89-1.89-3.24Z"/>
      <path class="h" d="M395.09,152.63l3.34-1.71,1.71,3.33-3.34,1.71-1.71-3.33Z"/>
      <path class="h" d="M399.36,161.3l3.42-1.53,1.53,3.42-3.42,1.53-1.53-3.42Z"/>
    </g>
    <g>
      <path class="h" d="M42.57,269.65l19.54,2.13,1.11,5.03-16.83,10.17-.91-4.13,3.44-2.04-1.47-6.66-3.98-.4-.91-4.1ZM50.99,274.47l1.01,4.56,7.98-4.68.23,1.03-9.21-.91Z"/>
      <path class="h" d="M48.66,295.1c-.4-1.27-.46-2.5-.18-3.69.29-1.19.85-2.24,1.7-3.15.85-.91,1.9-1.56,3.16-1.96,1.27-.4,2.51-.47,3.72-.21s2.28.8,3.2,1.61,1.58,1.83,1.97,3.07c.3.95.39,1.86.27,2.71-.12.85-.44,1.6-.96,2.23l-.89-.32,7.51-2.38,1.13,3.58-18.04,5.72-1.06-3.34,2.38-.75-.63.57c-.78-.24-1.45-.69-2.02-1.35-.57-.66-.99-1.43-1.27-2.32ZM52.01,294.51c.21.65.54,1.17,1,1.57.46.4,1,.65,1.63.75.63.11,1.29.05,1.99-.17.7-.22,1.27-.56,1.73-1.01.45-.45.75-.97.9-1.56.15-.59.12-1.21-.09-1.86-.21-.65-.55-1.19-1.02-1.6s-1.02-.69-1.64-.8-1.28-.06-1.98.16c-.7.22-1.27.56-1.72,1.02-.45.46-.74.99-.88,1.6-.14.61-.1,1.24.1,1.9Z"/>
      <path class="h" d="M52.41,305.85l12.51-5.47,1.4,3.21-3.05,1.33.35-.56c1.04-.24,1.95-.11,2.71.4.77.5,1.36,1.24,1.79,2.22.45,1.04.59,2.07.41,3.08-.18,1.02-.67,1.82-1.47,2.4l-.52-.95c1.2-.03,2.22.22,3.04.77.82.55,1.46,1.33,1.91,2.36.39.9.54,1.79.45,2.65-.09.87-.41,1.66-.94,2.36-.54.71-1.28,1.27-2.22,1.68l-8.04,3.52-1.5-3.44,7.31-3.2c.49-.21.87-.48,1.14-.81.27-.33.44-.7.5-1.1.06-.41-.01-.84-.21-1.3-.19-.44-.46-.79-.8-1.03-.34-.24-.73-.37-1.16-.39-.43-.02-.89.07-1.38.29l-7.31,3.2-1.5-3.44,7.31-3.2c.49-.21.87-.49,1.14-.81.27-.33.44-.7.5-1.11.06-.41-.01-.84-.21-1.3-.19-.44-.46-.79-.8-1.03-.34-.24-.73-.37-1.16-.4s-.89.07-1.38.29l-7.31,3.2-1.5-3.43Z"/>
      <path class="h" d="M62.45,327.63l12.03-6.44,1.77,3.31-12.03,6.44-1.77-3.31ZM75.56,320.61l3.31-1.77,1.77,3.3-3.31,1.77-1.77-3.31Z"/>
      <path class="h" d="M65.74,333.83l11.64-7.12,1.83,2.99-2.3,1.41.41-.48c.86-.16,1.64-.03,2.35.37.7.4,1.3,1,1.8,1.81.54.88.83,1.77.86,2.65.04.89-.17,1.72-.6,2.49-.43.77-1.09,1.43-1.97,1.97l-7.49,4.58-1.96-3.2,6.8-4.16c.46-.28.79-.61,1.01-.98.22-.38.32-.78.31-1.22s-.15-.86-.41-1.29c-.25-.41-.57-.72-.96-.94-.38-.21-.79-.31-1.23-.29s-.88.17-1.34.45l-6.8,4.16-1.96-3.2Z"/>
      <path class="h" d="M108.76,385.76l11.97-14.27,2.97,2.49-11.97,14.27-2.97-2.49Z"/>
      <path class="h" d="M114.47,390.57l8.14-10.96,2.81,2.09-1.61,2.17.2-.6c.74-.47,1.51-.65,2.31-.54.8.11,1.58.45,2.35,1.01.83.62,1.43,1.33,1.79,2.14s.49,1.65.38,2.54c-.12.88-.48,1.74-1.1,2.56l-5.23,7.04-3.01-2.24,4.76-6.4c.32-.43.51-.86.57-1.29.06-.43,0-.85-.17-1.25-.17-.4-.46-.75-.86-1.04-.39-.29-.8-.46-1.24-.51-.44-.05-.85,0-1.25.19-.4.19-.75.49-1.07.92l-4.75,6.4-3.01-2.24Z"/>
      <path class="h" d="M130.57,401.96l2.72-14.42,3.43,2.16-2.35,10.72-1.31-.83,8.65-6.75,3.43,2.16-11.82,8.69-2.75-1.73Z"/>
      <path class="h" d="M145.4,410.92c-1.28-.68-2.25-1.55-2.89-2.61-.65-1.06-.97-2.21-.99-3.44-.01-1.23.29-2.43.9-3.59.64-1.21,1.47-2.14,2.51-2.8,1.03-.66,2.15-1.02,3.35-1.09,1.2-.06,2.38.21,3.53.81.96.51,1.73,1.1,2.31,1.79.58.69.98,1.44,1.2,2.25.22.81.28,1.65.17,2.5-.11.86-.39,1.7-.83,2.54-.12.24-.26.46-.4.68-.14.22-.29.39-.43.52l-9.05-4.76,1.28-2.43,7.17,3.77-2.18.32c.48-.56.77-1.12.87-1.7.1-.58.02-1.12-.24-1.62-.25-.5-.68-.91-1.27-1.22-.58-.3-1.14-.42-1.7-.36-.56.06-1.09.31-1.58.75-.49.44-.92,1.06-1.29,1.86-.42.65-.65,1.29-.7,1.92s.08,1.21.38,1.74.78.96,1.43,1.3c.59.31,1.16.46,1.7.44.54-.01,1.04-.17,1.5-.46l1.99,2.66c-.55.47-1.19.79-1.93.96-.74.17-1.52.2-2.34.08-.82-.12-1.65-.4-2.47-.83Z"/>
      <path class="h" d="M153.96,414.92l5.37-12.55,3.22,1.38-1.06,2.48.05-.63c.61-.62,1.32-.98,2.13-1.06.8-.08,1.64.07,2.52.44.95.41,1.7.96,2.24,1.67.54.7.86,1.5.95,2.38.09.88-.06,1.8-.47,2.75l-3.45,8.07-3.45-1.48,3.14-7.33c.21-.49.29-.95.25-1.39-.04-.43-.19-.83-.45-1.17s-.62-.62-1.08-.81c-.45-.19-.89-.26-1.32-.21-.44.05-.83.21-1.17.48-.34.27-.62.65-.83,1.14l-3.14,7.33-3.45-1.47Z"/>
      <path class="h" d="M174.54,423.2c-1.56-.54-2.62-1.39-3.18-2.53-.56-1.14-.58-2.47-.05-3.98l1.81-5.17-2.17-.76,1.08-3.07.12.04c.66.23,1.23.24,1.7.04.47-.21.82-.64,1.05-1.3l.33-.94,3.54,1.24-1.02,2.93,3.02,1.06-1.07,3.07-3.02-1.06-1.73,4.93c-.15.44-.2.83-.15,1.18.05.35.22.65.5.91.28.26.67.47,1.15.64.11.04.24.08.39.11s.3.07.46.11l-1.05,3c-.25-.05-.52-.11-.83-.19-.31-.07-.6-.16-.87-.25Z"/>
      <path class="h" d="M185.41,426.63c-1.3-.36-2.41-.98-3.32-1.86-.91-.88-1.54-1.93-1.89-3.14-.35-1.21-.35-2.47,0-3.79.36-1.33,1-2.43,1.92-3.29.92-.86,1.99-1.44,3.22-1.74s2.5-.28,3.8.08c1.3.35,2.4.97,3.3,1.86.9.88,1.53,1.93,1.88,3.13.36,1.2.35,2.47-.01,3.81-.36,1.32-1,2.41-1.92,3.27-.92.86-1.99,1.45-3.21,1.76-1.22.31-2.49.28-3.79-.07ZM186.3,423.38c.66.18,1.27.18,1.85,0,.57-.17,1.08-.49,1.51-.96.43-.47.74-1.06.93-1.77s.22-1.37.09-1.99c-.13-.61-.4-1.15-.81-1.59-.41-.45-.94-.76-1.6-.94-.66-.18-1.28-.18-1.87,0-.58.18-1.09.5-1.52.96-.43.46-.74,1.05-.93,1.76-.19.71-.22,1.37-.09,2s.41,1.16.82,1.6c.42.44.95.75,1.61.93Z"/>
      <path class="h" d="M195.35,428.79l2.67-13.39,3.43.68-.64,3.21-.15-.51c.52-1.07,1.16-1.74,1.92-2,.76-.26,1.6-.3,2.53-.12l.79.16-.64,3.19-1.15-.23c-.9-.18-1.68-.05-2.35.39-.67.44-1.1,1.15-1.3,2.15l-1.44,7.21-3.68-.73Z"/>
      <path class="h" d="M206.79,436.5c-.4-.05-.78-.14-1.14-.25-.36-.12-.68-.26-.94-.45l.4-3.05c.22.1.49.19.79.28.31.09.59.15.86.19.73.1,1.27,0,1.63-.3.36-.3.67-.65.92-1.05l1.19-1.99-.46,3.09-3.96-15.88,3.99.53,2.53,11.25-1.49-.2,5.35-10.21,3.99.53-7.75,14.03c-.49.88-1.03,1.59-1.65,2.15s-1.27.95-1.98,1.16c-.71.22-1.48.27-2.3.16Z"/>
      <path class="h" d="M289.02,426.57c-1.13.31-2.24.39-3.34.25-1.1-.14-2.11-.49-3.03-1.05-.92-.56-1.7-1.31-2.33-2.24l2.69-2.21c.72.86,1.55,1.46,2.5,1.81.95.35,1.91.39,2.87.13.51-.14.93-.34,1.26-.6.33-.26.56-.56.69-.9.13-.34.15-.7.04-1.09-.11-.42-.34-.74-.68-.97s-.8-.36-1.4-.38l-3.84-.2c-1.56-.08-2.82-.45-3.77-1.11-.96-.66-1.6-1.6-1.93-2.81-.29-1.06-.28-2.06.02-3.01.3-.95.87-1.77,1.68-2.48.82-.71,1.84-1.22,3.06-1.56,1.08-.29,2.12-.38,3.14-.26,1.02.12,1.95.43,2.8.92.85.49,1.57,1.17,2.17,2.03l-2.67,2.2c-.56-.75-1.25-1.26-2.05-1.55-.8-.29-1.64-.32-2.51-.08-.5.13-.92.33-1.26.6-.34.27-.58.58-.71.93-.13.36-.14.72-.04,1.11.11.42.35.75.71.99.36.24.84.37,1.43.4l3.75.17c1.57.07,2.83.43,3.78,1.07.94.64,1.58,1.57,1.91,2.77.28,1.05.26,2.05-.06,3.01s-.91,1.8-1.74,2.52c-.83.72-1.88,1.25-3.16,1.59Z"/>
      <path class="h" d="M302.51,422.37c-.93.33-1.78.47-2.56.42-.78-.05-1.45-.3-2.01-.72-.56-.43-.98-1.02-1.26-1.79-.26-.72-.32-1.42-.2-2.09s.47-1.33,1.01-1.95c.55-.62,1.3-1.19,2.26-1.72l3.7-2.05.93,2.59-3.08,1.77c-.47.28-.79.57-.98.9-.18.32-.2.7-.05,1.12.14.39.4.64.78.76s.79.09,1.22-.07c.58-.21,1.04-.52,1.39-.93.35-.41.57-.87.66-1.39.09-.52.04-1.04-.15-1.55l-1.2-3.34c-.17-.49-.51-.83-1.02-1.02-.5-.19-1.08-.17-1.74.07-.63.23-1.12.6-1.47,1.12-.35.52-.54,1.1-.55,1.74l-3.31-.32c0-.81.17-1.58.53-2.29.36-.71.88-1.35,1.54-1.91.67-.56,1.46-1,2.36-1.33,1.08-.39,2.11-.54,3.08-.45.97.09,1.81.41,2.53.94.71.53,1.24,1.26,1.57,2.18l3.05,8.47-3.29,1.19-.75-2.07.75-.43c-.17.7-.42,1.32-.74,1.85-.32.53-.73.99-1.23,1.37-.5.38-1.09.7-1.78.95Z"/>
      <path class="h" d="M312.55,418.23l-7.39-17.42,3.45-1.46,7.38,17.42-3.45,1.46Z"/>
      <path class="h" d="M325.08,412.86c-1.3.64-2.57.91-3.81.81-1.24-.1-2.36-.51-3.37-1.22-1-.71-1.79-1.66-2.38-2.84-.61-1.23-.87-2.45-.8-3.68.07-1.23.44-2.34,1.09-3.35.65-1.01,1.56-1.8,2.73-2.38.97-.48,1.91-.75,2.8-.81.9-.06,1.74.06,2.53.35.79.3,1.5.74,2.12,1.33s1.15,1.31,1.57,2.17c.12.24.22.48.32.72.09.24.15.46.17.66l-9.17,4.53-1.22-2.47,7.26-3.59-1.02,1.95c-.17-.72-.46-1.28-.87-1.7-.41-.42-.9-.67-1.45-.76s-1.13.01-1.73.31c-.58.29-1.01.68-1.29,1.17-.28.49-.38,1.06-.32,1.72s.31,1.37.75,2.14c.28.72.66,1.28,1.14,1.7.48.41,1.03.65,1.63.71.61.06,1.24-.07,1.9-.39.6-.29,1.05-.67,1.36-1.12.31-.45.48-.94.51-1.48l3.32-.05c.06.72-.06,1.42-.36,2.13-.29.7-.73,1.35-1.31,1.94-.58.59-1.29,1.1-2.13,1.51Z"/>
      <path class="h" d="M338.05,405.81c-1.29.76-2.59,1.12-3.91,1.08-1.31-.04-2.45-.48-3.4-1.31l1.71-2.52c.67.45,1.38.71,2.1.76.73.05,1.41-.11,2.04-.48.46-.27.75-.57.89-.9.13-.33.1-.66-.09-.99-.1-.17-.23-.29-.39-.37-.16-.07-.35-.11-.58-.1-.23,0-.5.04-.8.12l-2.33.62c-1.12.3-2.12.29-3-.01-.88-.3-1.56-.87-2.05-1.71-.43-.73-.62-1.48-.57-2.25.05-.77.32-1.5.81-2.21.49-.71,1.18-1.32,2.05-1.84,1.15-.68,2.31-1,3.5-.98,1.19.02,2.25.42,3.18,1.18l-1.73,2.53c-.46-.39-1-.59-1.63-.62-.62-.03-1.23.13-1.8.47-.42.25-.69.53-.83.84s-.11.62.06.92c.09.16.22.27.38.35.16.08.37.11.62.1.25-.02.55-.06.89-.15l2.2-.55c1.15-.29,2.15-.3,3.01-.02.86.28,1.54.84,2.04,1.68.43.73.62,1.48.56,2.25-.06.77-.33,1.51-.83,2.21-.49.71-1.2,1.33-2.12,1.88Z"/>
    </g>
    <g id="d" data-name="Layer 1">
      <g>
        <path class="n" d="M511.83,247.93c.27.6.39,1.33.39,2.15v.06c0,.94-.17,1.78-.52,2.52-.35.74-.82,1.36-1.43,1.86-.61.5-1.34.88-2.18,1.13-.83.25-1.77.39-2.78.39s-2.83-.24-4.19-.74c-1.36-.49-2.62-1.25-3.74-2.26-.07-.07-.08-.17-.02-.25l2.39-2.86c.06-.07.17-.08.25-.02.82.67,1.69,1.21,2.55,1.61.85.39,1.8.59,2.83.59s1.43-.14,1.86-.43c.42-.27.62-.65.62-1.12v-.06c0-.23-.05-.44-.13-.62-.08-.17-.24-.33-.49-.49-.25-.17-.64-.33-1.1-.51-.47-.17-1.11-.36-1.87-.55-.94-.23-1.79-.49-2.55-.77-.76-.29-1.43-.65-1.98-1.06-.55-.43-.98-.97-1.28-1.61-.3-.64-.45-1.43-.45-2.37v-.06c0-.86.16-1.66.49-2.35.32-.7.78-1.31,1.36-1.81.58-.51,1.28-.9,2.09-1.17.8-.27,1.7-.4,2.66-.4,1.36,0,2.63.21,3.79.61,1.14.4,2.22,1,3.16,1.77.07.06.09.16.03.24l-2.1,3.06c-.06.08-.17.1-.25.05-.81-.55-1.62-.99-2.39-1.31-.76-.32-1.55-.47-2.3-.47s-1.31.14-1.66.43c-.35.27-.52.6-.52,1v.06c0,.27.05.5.15.69.1.18.29.37.55.52.29.16.69.32,1.19.49.52.16,1.18.35,1.96.55.72.19,1.39.4,2,.63.18.07.36.13.52.21,1.09.5,2.42,1.2,3.08,2.69"/>
        <path class="n" d="M537.44,236.07c-1.31.05-2.68.4-3.39,1.09-.74.73-1.13,1.65-1.13,3.19v.91h-1.41c-.1,0-.18.08-.18.18v3.46c0,.1.08.18.18.18h1.41v10.41c0,.1.08.18.18.18h4.17c.1,0,.18-.08.18-.18v-10.41h2.96c.1,0,.18-.08.18-.18v-3.47c0-.1-.08-.18-.18-.18h-3.01v-.42c0-.88.38-1.15,1.21-1.15h1.81c.1,0,.18-.08.18-.18v-3.28c0-.1-.08-.15-.18-.15h-2.99,0Z"/>
        <path class="n" d="M527.56,242.6c-.72-.7-1.57-1.25-2.56-1.66-.98-.4-2.07-.6-3.22-.6s-2.26.2-3.24.61c-.98.41-1.85.97-2.57,1.68s-1.3,1.55-1.71,2.49c-.41.94-.62,1.97-.62,3.05v.06c0,1.08.2,2.1.62,3.05.41.94.98,1.77,1.69,2.47.72.7,1.57,1.25,2.56,1.66.98.4,2.07.6,3.22.6s2.26-.2,3.24-.61c.98-.41,1.85-.97,2.57-1.68.72-.71,1.3-1.55,1.71-2.49.41-.94.62-1.97.62-3.05v-.06c0-1.08-.21-2.1-.62-3.05-.41-.94-.98-1.77-1.69-2.47M525.41,248.22c0,.53-.08,1.02-.25,1.49-.17.46-.41.86-.72,1.21-.31.35-.68.62-1.13.82-.43.19-.95.3-1.53.3s-1.06-.11-1.49-.31-.83-.49-1.16-.85c-.33-.35-.58-.77-.76-1.23-.17-.46-.26-.96-.26-1.48v-.06c0-.53.08-1.02.25-1.49.17-.46.41-.86.72-1.21.31-.35.7-.62,1.13-.82.43-.19.95-.3,1.52-.3s1.03.11,1.48.31.84.49,1.18.85c.34.36.58.77.76,1.23.17.47.26.96.26,1.48v.06h0Z"/>
        <path class="n" d="M627.25,242.98v-2.13c0-.11-.08-.19-.19-.19h-4.14c-.11,0-.19.08-.19.19v14.63c0,.11.08.19.19.19h4.14c.11,0,.19-.08.19-.19v-5.41c0-1.71.38-2.98,1.14-3.77.75-.79,1.81-1.2,3.13-1.2h.21c.11,0,.19-.08.19-.19v-3.75c0-.09-.07-.17-.16-.19h-.07c-2.67,0-4.06,1.31-4.44,2.01"/>
        <path class="n" d="M560.95,251.76v-3.51h6.99c.1,0,.18-.08.18-.18v-3.6c0-.1-.08-.19-.18-.19h-6.99v-3.38h8.46c.1,0,.19-.08.19-.18v-3.6c0-.1-.08-.18-.19-.18h-12.07c-.52,0-.95.43-.95.95v16.85c0,.55.45.99.99.99h12.15c.1,0,.18-.08.18-.19v-3.6c0-.1-.08-.18-.18-.18l-8.59.02h0Z"/>
        <path class="n" d="M581.7,247.98l4.86-7.02c.04-.06.05-.13,0-.19-.04-.06-.1-.09-.17-.09h-4.33c-.06,0-.12.03-.16.08l-2.6,4.01-2.57-4.01s-.1-.08-.16-.08h-4.44c-.07,0-.13.03-.17.09-.04.06-.03.13,0,.19l4.86,7.1-5.05,7.32c-.04.06-.05.13,0,.19.04.06.1.09.17.09h4.33c.06,0,.12-.03.16-.08l2.79-4.32,2.79,4.32s.1.08.16.08h4.44c.07,0,.13-.03.17-.09.03-.05.03-.11.01-.16-.01-.03-.05-.08-.05-.08l-5.04-7.35h0Z"/>
        <path class="n" d="M603.84,244.83c-.38-.96-.9-1.77-1.52-2.43h0c-.64-.67-1.37-1.17-2.19-1.52-.81-.33-1.68-.5-2.55-.5s-2.06.23-2.81.7c-.59.36-1.1.8-1.56,1.33v-1.56c0-.11-.08-.19-.19-.19h-4.14c-.11,0-.19.08-.19.19v19.25c0,.11.08.19.19.19h4.14c.11,0,.19-.08.19-.19v-6.04c.43.44.94.85,1.53,1.2.74.46,1.7.68,2.84.68s1.76-.17,2.57-.5c.81-.33,1.55-.84,2.18-1.51.62-.66,1.13-1.48,1.51-2.43.38-.96.58-2.07.58-3.3v-.06c0-1.25-.19-2.35-.58-3.3M599.91,248.13c-.02.42-.11,1.19-.29,1.66-.18.47-.43.88-.74,1.22-.31.34-.67.6-1.07.78-.8.36-1.8.36-2.6,0-.4-.18-.75-.44-1.05-.78-.3-.33-.54-.75-.73-1.23-.18-.48-.27-1.02-.27-1.59v-.06c0-.58.1-1.11.27-1.59.18-.48.43-.9.73-1.23.3-.34.65-.6,1.05-.78.4-.18.84-.27,1.31-.27s.9.1,1.31.27c.41.18.75.44,1.07.78.31.33.56.75.74,1.23.18.48.3,1.02.27,1.59"/>
        <path class="n" d="M620.53,245.48c-.29-.97-.89-2.02-1.34-2.6-.45-.57-1.34-1.41-2.25-1.86-.91-.44-2.01-.67-3.25-.67s-2.11.2-3,.62c-.9.42-1.69.97-2.34,1.69-.65.71-1.16,1.54-1.52,2.49-.36.94-.55,1.96-.55,3.02v.06c0,1.15.19,2.2.59,3.14.38.93.94,1.76,1.64,2.46.7.69,1.53,1.22,2.49,1.6.96.37,2,.55,3.1.55s2.54-.25,3.54-.74c.99-.49,1.87-1.19,2.56-2.06.06-.07.05-.19-.02-.25l-2.37-2.1c-.07-.06-.18-.06-.25,0-.56.52-1.11.88-1.64,1.11-.52.23-1.11.35-1.78.35s-1.63-.23-2.22-.68c-.54-.41-.91-1.02-1.11-1.81h9.94c.1,0,.18-.07.18-.17.03-.2.04-.37.04-.53v-.59c0-1.05-.14-2.07-.43-3.04M610.76,246.79c.17-.8.49-1.46.96-1.95.5-.53,1.15-.79,1.98-.79s1.47.26,1.96.8c.46.5.75,1.15.9,1.94h-5.79,0Z"/>
        <path class="n" d="M552.68,241.44h0c-.01-.11-.09-.18-.19-.18h-3.24v-5c0-.11-.08-.19-.19-.19h-4.14c-.11,0-.19.08-.19.19v5h-1.55c-.07,0-.13.03-.16.08-.02.03-.03.07-.03.11v3.43s.01.08.03.11c.03.05.09.08.16.08h1.55v6.58c0,1.39.4,2.45,1.2,3.19.79.73,1.95,1.09,3.5,1.09s2.24-.21,2.67-.35c.08-.02.13-.11.12-.19l-.53-2.98c0-.1-.12-.17-.21-.14-.11.02-.25.04-.42.06-.28.04-.49.05-.65.05-.41,0-.7-.1-.88-.27-.18-.19-.27-.47-.27-.86v-6.16h3.24c.11,0,.19-.08.19-.19v-3.45h0Z"/>
        <path class="n" d="M643.89,241.44h0c-.01-.11-.09-.18-.19-.18h-3.24v-5c0-.11-.08-.19-.19-.19h-4.14c-.11,0-.19.08-.19.19v5h-1.55c-.07,0-.13.03-.16.08-.02.03-.03.07-.03.11v3.43s.01.08.03.11c.03.05.09.08.16.08h1.55v6.58c0,1.39.4,2.45,1.2,3.19.79.73,1.95,1.09,3.5,1.09s2.24-.21,2.67-.35c.08-.02.13-.11.12-.19l-.53-2.98c0-.1-.12-.17-.21-.14-.11.02-.25.04-.42.06-.28.04-.49.05-.65.05-.41,0-.7-.1-.88-.27-.18-.19-.27-.47-.27-.86v-6.16h3.24c.11,0,.19-.08.19-.19v-3.45h0Z"/>
        <path class="n" d="M560.76,280.76c-1.18,0-2.18-.25-3.01-.76s-1.46-1.22-1.89-2.13c-.43-.91-.64-1.97-.64-3.18v-8.86h4.01v8.54c0,.55.11,1.04.33,1.46.22.42.54.74.95.98.41.23.87.35,1.39.35s1-.12,1.41-.35.71-.56.94-.98c.22-.42.33-.9.33-1.46v-8.54h4.01v14.61h-3.75v-2.89l.21.64c-.34.87-.89,1.52-1.65,1.94-.76.42-1.65.63-2.66.63h0Z"/>
        <path class="n" d="M571.55,264.52v-4.01h4.01v4.01h-4.01ZM571.55,280.44v-14.61h4.01v14.61h-4.01Z"/>
        <path class="n" d="M552.13,272.48c.27.6.39,1.33.39,2.15v.06c0,.94-.17,1.78-.52,2.52-.35.74-.82,1.36-1.43,1.86-.61.5-1.34.88-2.18,1.13-.83.25-1.77.39-2.78.39s-2.83-.24-4.19-.74c-1.36-.49-2.62-1.25-3.74-2.26-.07-.07-.08-.17-.02-.25l2.39-2.86c.06-.07.17-.08.25-.02.82.67,1.69,1.21,2.55,1.61.85.39,1.8.59,2.83.59s1.43-.14,1.86-.43c.42-.27.62-.65.62-1.12v-.06c0-.23-.05-.44-.13-.62-.08-.17-.24-.33-.49-.49-.25-.17-.64-.33-1.1-.51-.47-.17-1.11-.36-1.87-.55-.94-.23-1.79-.49-2.55-.77-.76-.29-1.43-.65-1.98-1.06-.55-.43-.98-.97-1.28-1.61-.3-.64-.45-1.43-.45-2.37v-.06c0-.86.16-1.66.49-2.35.32-.7.78-1.31,1.36-1.81.58-.51,1.28-.9,2.09-1.17.8-.27,1.7-.4,2.66-.4,1.36,0,2.63.21,3.79.61,1.14.4,2.22,1,3.16,1.77.07.06.09.16.03.24l-2.1,3.06c-.06.08-.17.1-.25.05-.81-.55-1.62-.99-2.39-1.31-.76-.32-1.55-.47-2.3-.47s-1.31.14-1.66.43c-.35.27-.52.6-.52,1v.06c0,.27.05.5.15.69.1.18.29.37.55.52.29.16.69.32,1.19.49.52.16,1.18.35,1.96.55.72.19,1.39.4,2,.63.18.07.36.13.52.21,1.09.5,2.42,1.2,3.08,2.69"/>
        <path class="n" d="M603.16,270.22c-.29-.97-.89-2.02-1.34-2.6-.45-.57-1.34-1.41-2.25-1.86-.91-.44-2.01-.67-3.25-.67s-2.11.2-3,.62c-.9.42-1.69.97-2.34,1.69-.65.71-1.16,1.54-1.52,2.49-.36.94-.55,1.96-.55,3.02v.06c0,1.15.19,2.2.59,3.14.38.93.94,1.76,1.64,2.46.7.69,1.53,1.22,2.49,1.6.96.37,2,.55,3.1.55s2.54-.25,3.54-.74c.99-.49,1.87-1.19,2.56-2.06.06-.07.05-.19-.02-.25l-2.37-2.1c-.07-.06-.18-.06-.25,0-.56.52-1.11.88-1.64,1.11-.52.23-1.11.35-1.78.35s-1.63-.23-2.22-.68c-.54-.41-.91-1.02-1.11-1.81h9.94c.1,0,.18-.07.18-.17.03-.2.04-.37.04-.53v-.59c0-1.05-.14-2.07-.43-3.04M593.39,271.53c.17-.8.49-1.46.96-1.95.5-.53,1.15-.79,1.98-.79s1.47.26,1.96.8c.46.5.75,1.15.9,1.94h-5.79,0Z"/>
        <path class="n" d="M587.32,266.18h0c-.01-.11-.09-.18-.19-.18h-3.24v-5c0-.11-.08-.19-.19-.19h-4.14c-.11,0-.19.08-.19.19v5h-1.55c-.07,0-.13.03-.16.08-.02.03-.03.07-.03.11v3.43s.01.08.03.11c.03.05.09.08.16.08h1.55v6.58c0,1.39.4,2.45,1.2,3.19.79.73,1.95,1.09,3.5,1.09s2.24-.21,2.67-.35c.08-.02.13-.11.12-.19l-.53-2.98c0-.1-.12-.17-.21-.14-.11.02-.25.04-.42.06-.28.04-.49.05-.65.05-.41,0-.7-.1-.88-.27-.18-.19-.27-.47-.27-.86v-6.16h3.24c.11,0,.19-.08.19-.19v-3.45h0Z"/>
        <g class="k">
          <g>
            <path class="n" d="M575.48,199.32c.11,0,.21.06.26.15l3.51,6.09c.11.2.41.2.52,0l4.17-7.23c.05-.09.05-.21,0-.29l-3.68-6.38c-.05-.1-.15-.15-.26-.15h-7.36c-.11,0-.21.06-.26.15l-4.17,7.23c-.11.2.03.46.26.46h7.01s0-.01,0-.01Z"/>
            <path class="n" d="M585.51,200.64l3.88,6.45c.29.51.16,1.27-.14,1.78l-8.61,14.92c-.29.51-.84.83-1.42.83h-17.2c-.59,0-1.14-.31-1.42-.83l-8.73-15.05c-.29-.51-.29-1.14,0-1.64l8.72-14.79c.3-.51.84-.83,1.42-.83h7.61c.21,0,.35.23.25.42l-8.84,15.32c-.29.51-.29,1.14,0,1.64l4.2,7.08c.29.51.73.84,1.31.84h8.17c.59,0,.96-.24,1.24-.75l9.09-15.39c.11-.19.37-.19.48,0h0Z"/>
          </g>
        </g>
      </g>
    </g>
  </g>
</svg>