<?xml version="1.0" encoding="UTF-8"?>
<svg id="Camada_2" xmlns="http://www.w3.org/2000/svg" viewBox="0 0 652.15 173.61">
  <defs>
    <style>
      .cls-1 {
        fill: #2f449c;
        fill-rule: evenodd;
      }
    </style>
  </defs>
  <g id="Layer_1">
    <path class="cls-1" d="M628.76,34.86c2.23-11.46-2.39-17.18-13.84-17.18h-357.22c-11.46,0-18.3,5.73-20.53,17.18l-15.36,81.53c-2.23,11.46,2.39,17.19,14.03,17.19h357.22c11.27,0,18.11-5.73,20.34-17.19l15.36-81.53h0ZM601.44,55.71h8.76l-3.62,20.46h-8.96l-6.25,34.46h-21.35l6.06-34.46h-8.71l3.62-20.46h8.9l2.44-14.01h21.55l-2.44,14.01h0ZM278.07,90.17h26.54l-3.87,20.36h-49.91l14.12-75.05h47.61l-3.62,20.3h-24.44l-1.6,7.4h23.1l-3.48,18.94h-23.1l-1.36,8.05h0ZM343.87,55.78l5.64,11.89,8.48-11.89h28.45l-25.14,27.94,17.37,26.92h-27.5l-6.52-11.12-8.75,11.12h-29.6l26.36-26.92-16.49-27.94h27.69ZM416.83,63.55c11.53-13.52,35.15-9.68,35.09,13.62-.04,17.79-12.15,32.94-26.81,32.94-5.92,0-10.89-2.47-15.08-8.78l-3.71,22.76h-22.64l12.37-68.35h22.36l-1.58,7.8h0ZM426.21,74.09c4,1.54,5.94,6.3,4.32,10.64-1.62,4.34-6.17,6.62-10.18,5.08-4-1.54-5.94-6.3-4.32-10.64,1.62-4.34,6.17-6.62,10.18-5.08h0ZM487.76,55.52c14.75.51,26.97,8.9,25.4,29.09l-34.46.05c-3.06,14.28,11.54,12.56,13.29,6.03l19.31,2.42c-6.01,13.8-15.79,17.2-28.7,17.2-11.82,0-25.79-7.12-25.75-23.95.05-20.57,16-30.85,30.91-30.85h0ZM492.23,75.79h-12.53c.83-4.04,2.74-7.97,7.45-7.97,4.2,0,5.58,3.96,5.08,7.97h0ZM543.85,65.35c5.42-8.09,8.82-9.63,21.15-9.61l-3.62,20.4c-12.47-.54-17.58,3.32-18.97,11.81l-3.92,22.69h-23.81l9.84-54.69,21.33-.19-1.99,9.59Z"/>
    <path class="cls-1" d="M36.43,8.86c-11.46,0-18.3,5.73-20.53,17.18L.54,107.58c-2.23,11.46,2.39,17.19,14.03,17.19h198.43c11.27,0,18.11-5.73,20.34-17.19l15.36-81.53c2.23-11.46-2.39-17.18-13.84-17.18H36.43ZM64.05,55.57c9.88,5.1,15.34,12.25,15.25,21.68-.16,17.54-13.82,28.67-30.25,28.67-11.27,0-21.53-4.71-31.18-14.14l12.34-19.69c4.97,6.42,23.14,17.19,23.28,8.11-.33-2.06-2.45-3.14-7.2-5.5-11.41-5.3-17.07-12.76-16.97-22.77.07-8.05,2.81-14.73,8.01-19.83,5.39-5.1,12.48-7.85,21.08-7.85,9.93,0,18.3,3.34,25.3,9.82l-9.85,18.75c-6.05-5.81-10.3-7.75-14.31-7.75-2.48,0-3.83,1.18-3.85,3.34-.03,3.71,5.71,5.95,8.35,7.18h0ZM221.38,52.04h8.77l-3.43,19.45h-8.96l-6.25,34.46h-21.35l6.06-34.46h-8.71l3.43-19.45h8.9l2.63-15.02h21.55l-2.63,15.02h0ZM188.74,26.15l-3.2,18.67c-7.6-.9-9.95,2.37-10.03,7.29h8.59l-3.43,19.42h-8.78l-6.06,34.42h-22.91l6.06-34.42h-7.74l3.62-19.42h7.54c3.59-20.93,14.96-30.85,36.34-25.96h0ZM131.74,57.06c4.54,4.63,6.77,10.74,6.69,18.14-.07,7.03-2.23,13.51-6.87,19.07-6,7.77-14.05,11.48-23.79,11.48-7.26,0-13.15-2.22-17.88-6.85-4.54-4.44-6.77-10.18-6.7-17.21.09-8.7,2.83-15.92,8.24-21.84,6.17-6.29,13.46-9.44,22.05-9.44,7.64,0,13.73,2.22,18.26,6.66h0ZM116.61,72.24c1.26,1.28,1.88,2.97,1.85,5.03-.02,1.95-.62,3.74-1.9,5.28-1.66,2.15-3.89,3.18-6.59,3.18-2.01,0-3.64-.62-4.95-1.9-1.26-1.23-1.88-2.82-1.86-4.77.02-2.41.78-4.41,2.28-6.05,1.71-1.74,3.73-2.62,6.11-2.62,2.12,0,3.8.62,5.06,1.85Z"/>
    <path class="cls-1" d="M10.45,161.18c-2.93-.88-5-1.97-6.21-3.25-1.21-1.28-1.68-2.87-1.41-4.75.31-2.13,1.42-3.89,3.32-5.29,1.91-1.39,4.22-2.09,6.94-2.09,1.86,0,3.47.36,4.82,1.08,1.36.72,2.34,1.71,2.95,2.97.62,1.26.82,2.64.6,4.14h-3.58c.23-1.64-.1-2.92-1-3.86-.91-.93-2.31-1.4-4.21-1.4-1.76,0-3.18.39-4.28,1.16-1.1.78-1.74,1.85-1.94,3.23-.16,1.1.17,2.04,1,2.8.82.76,2.31,1.46,4.47,2.09,2.15.63,3.82,1.33,4.97,2.09,1.16.76,1.97,1.65,2.44,2.67.47,1.01.6,2.21.4,3.59-.32,2.19-1.42,3.95-3.32,5.27-1.9,1.32-4.28,1.98-7.14,1.98-1.86,0-3.54-.36-5.05-1.07-1.5-.72-2.6-1.69-3.3-2.93-.7-1.24-.93-2.64-.7-4.22h3.58c-.23,1.63.18,2.92,1.26,3.86,1.07.94,2.61,1.42,4.63,1.42,1.88,0,3.38-.39,4.49-1.15,1.12-.77,1.77-1.81,1.96-3.13.19-1.33-.13-2.35-.95-3.08-.82-.72-2.41-1.44-4.75-2.14h0ZM22.88,163c.28-1.97.92-3.74,1.92-5.31,1-1.58,2.25-2.79,3.76-3.65,1.5-.86,3.14-1.28,4.91-1.28,2.74,0,4.82.94,6.24,2.84,1.41,1.9,1.89,4.42,1.44,7.56l-.03.24c-.28,1.96-.91,3.72-1.88,5.27-.97,1.55-2.22,2.76-3.74,3.63-1.51.87-3.18,1.3-4.99,1.3-2.73,0-4.8-.94-6.21-2.84-1.42-1.9-1.9-4.41-1.45-7.53l.03-.24h0ZM26.27,163.4c-.32,2.23-.06,4.02.77,5.37.84,1.35,2.13,2.02,3.86,2.02s3.23-.68,4.45-2.05c1.22-1.37,2.01-3.28,2.37-5.75.32-2.21.05-3.99-.8-5.36-.85-1.37-2.14-2.05-3.88-2.05s-3.16.67-4.39,2.02c-1.23,1.35-2.03,3.28-2.39,5.8h0ZM45.23,173.23l2.51-17.42h-3.18l.38-2.66h3.18l.3-2.06c.31-2.16,1.13-3.82,2.45-5,1.32-1.17,3.03-1.76,5.14-1.76.79,0,1.56.11,2.31.32l-.58,2.78c-.57-.11-1.18-.16-1.83-.16-1.12,0-2.02.32-2.72.98-.7.65-1.14,1.59-1.32,2.8l-.3,2.12h4.29l-.38,2.66h-4.29l-2.51,17.42h-3.44ZM64.54,148.27h-3.44l-.7,4.87h-3.66l-.38,2.66h3.66l-1.79,12.46c-.25,1.71-.05,3.02.6,3.95.65.93,1.74,1.39,3.27,1.39.86,0,1.75-.13,2.69-.37l.4-2.78c-.71.15-1.27.22-1.67.22-.81,0-1.35-.2-1.62-.6-.28-.41-.36-1.01-.24-1.81l1.79-12.46h3.75l.38-2.66h-3.75l.7-4.87h0ZM86.7,168.49l6.08-15.35h3.44l-8.74,20.09h-2.78l-2.7-15.22-6.94,15.22h-2.79l-2.94-20.09h3.42l1.79,15.04,6.84-15.04h2.76l2.57,15.35h0ZM108.77,173.23c-.14-.39-.2-1.1-.18-2.11-1.84,1.66-3.86,2.49-6.08,2.49-1.98,0-3.53-.56-4.63-1.68-1.11-1.12-1.54-2.54-1.29-4.26.3-2.09,1.33-3.72,3.08-4.88,1.76-1.16,4.08-1.74,6.96-1.74h3.34l.23-1.58c.17-1.2-.05-2.16-.66-2.87-.62-.71-1.63-1.07-3.02-1.07-1.23,0-2.3.31-3.22.93-.92.62-1.44,1.37-1.57,2.24h-3.46c.14-1,.64-1.97,1.48-2.91.85-.93,1.92-1.67,3.22-2.22,1.3-.55,2.67-.82,4.14-.82,2.31,0,4.04.58,5.19,1.74,1.15,1.15,1.6,2.75,1.35,4.78l-1.33,9.25c-.27,1.85-.23,3.31.08,4.4l-.04.3h-3.61ZM103.43,170.68c1.08,0,2.14-.28,3.18-.84,1.05-.56,1.85-1.29,2.41-2.19l.6-4.16h-2.69c-4.21,0-6.49,1.24-6.85,3.73-.16,1.08.08,1.93.71,2.54.63.61,1.51.92,2.64.92h0ZM128.74,156.2c-.51-.09-1.06-.13-1.67-.13-2.26,0-3.92.96-5,2.88l-2.05,14.28h-3.44l2.89-20.09h3.34l-.28,2.31c1.39-1.79,3.11-2.69,5.18-2.69.67,0,1.17.09,1.48.26l-.46,3.18h0ZM137.27,173.61c3.37,0,6.08-1.29,8.14-3.88l-1.86-1.64c-.75.81-1.58,1.46-2.49,1.96-.91.49-1.98.74-3.19.74-1.71,0-3.03-.61-3.97-1.83-.93-1.22-1.28-2.82-1.05-4.79h13.62l.21-1.43c.46-3.21.09-5.67-1.11-7.4-1.2-1.72-3.11-2.58-5.72-2.58-1.6,0-3.15.44-4.64,1.33-1.5.88-2.74,2.11-3.72,3.68-.99,1.57-1.62,3.35-1.91,5.34l-.09.63c-.43,3,.08,5.39,1.53,7.18,1.45,1.79,3.55,2.68,6.27,2.68h0ZM139.44,155.58c1.43,0,2.51.48,3.21,1.45s.98,2.32.83,4.08l-.04.26h-10.07c.48-1.83,1.27-3.25,2.36-4.26,1.09-1.01,2.32-1.52,3.71-1.52h0ZM159.3,173.23l2.51-17.42h-3.18l.38-2.66h3.18l.3-2.06c.31-2.16,1.13-3.82,2.45-5,1.32-1.17,3.03-1.76,5.14-1.76.79,0,1.56.11,2.31.32l-.58,2.78c-.57-.11-1.18-.16-1.83-.16-1.12,0-2.02.32-2.72.98-.7.65-1.14,1.59-1.32,2.8l-.3,2.12h4.29l-.38,2.66h-4.29l-2.51,17.42h-3.44ZM170.91,163l-.03.24c-.45,3.12.03,5.63,1.45,7.53,1.41,1.9,3.48,2.84,6.21,2.84,1.81,0,3.47-.43,4.99-1.3,1.52-.87,2.77-2.08,3.74-3.63.97-1.55,1.6-3.31,1.88-5.27l.03-.24c.45-3.14-.03-5.67-1.44-7.56-1.42-1.9-3.5-2.84-6.24-2.84-1.77,0-3.41.42-4.91,1.28-1.51.86-2.76,2.07-3.76,3.65-1,1.57-1.64,3.34-1.92,5.31h0ZM174.31,163.4c.36-2.52,1.16-4.45,2.39-5.8,1.23-1.35,2.7-2.02,4.39-2.02s3.03.68,3.88,2.05c.85,1.37,1.11,3.15.8,5.36-.35,2.47-1.14,4.38-2.37,5.75-1.22,1.37-2.71,2.05-4.45,2.05s-3.02-.67-3.86-2.02c-.84-1.35-1.09-3.15-.77-5.37h0ZM203.73,156.2c-.51-.09-1.06-.13-1.67-.13-2.26,0-3.92.96-5,2.88l-2.05,14.28h-3.44l2.89-20.09h3.34l-.28,2.31c1.39-1.79,3.11-2.69,5.18-2.69.67,0,1.17.09,1.48.26l-.46,3.18h0ZM218.55,162.65l-1.52,10.58h-3.56l3.89-27.05h9.97c2.96,0,5.17.75,6.63,2.27,1.46,1.51,2.01,3.51,1.65,6-.38,2.63-1.49,4.65-3.33,6.07-1.85,1.42-4.3,2.13-7.36,2.13h-6.37ZM218.97,159.72h6.41c1.91,0,3.43-.45,4.58-1.35,1.14-.89,1.84-2.19,2.08-3.89.23-1.61-.09-2.9-.97-3.87-.88-.96-2.2-1.46-3.96-1.5h-6.61l-1.53,10.61h0ZM244.74,173.61c-2.72,0-4.81-.89-6.27-2.68-1.45-1.79-1.96-4.18-1.53-7.18l.09-.63c.29-1.99.92-3.77,1.91-5.34.99-1.57,2.23-2.8,3.72-3.68,1.5-.89,3.04-1.33,4.64-1.33,2.61,0,4.52.86,5.72,2.58,1.2,1.72,1.57,4.19,1.11,7.4l-.21,1.43h-13.62c-.23,1.98.11,3.58,1.05,4.79.93,1.22,2.25,1.83,3.97,1.83,1.21,0,2.27-.25,3.19-.74.91-.49,1.74-1.15,2.49-1.96l1.86,1.64c-2.06,2.59-4.77,3.88-8.14,3.88h0ZM246.91,155.58c-1.39,0-2.62.51-3.71,1.52-1.08,1.01-1.87,2.43-2.36,4.26h10.07l.04-.26c.15-1.76-.12-3.11-.83-4.08s-1.78-1.45-3.21-1.45h0ZM268.29,156.2c-.51-.09-1.06-.13-1.67-.13-2.26,0-3.92.96-5,2.88l-2.05,14.28h-3.44l2.89-20.09h3.34l-.28,2.31c1.39-1.79,3.11-2.69,5.18-2.69.67,0,1.17.09,1.48.26l-.46,3.18h0ZM270.5,173.23l2.51-17.42h-3.18l.38-2.66h3.18l.3-2.06c.31-2.16,1.13-3.82,2.45-5,1.32-1.17,3.03-1.76,5.14-1.76.79,0,1.56.11,2.31.32l-.58,2.78c-.57-.11-1.18-.16-1.83-.16-1.12,0-2.02.32-2.72.98-.7.65-1.14,1.59-1.32,2.8l-.3,2.12h4.29l-.38,2.66h-4.29l-2.51,17.42h-3.44ZM282.11,163l-.03.24c-.45,3.12.03,5.63,1.45,7.53,1.41,1.9,3.48,2.84,6.21,2.84,1.81,0,3.47-.43,4.99-1.3,1.52-.87,2.77-2.08,3.74-3.63.97-1.55,1.6-3.31,1.88-5.27l.03-.24c.45-3.14-.03-5.67-1.44-7.56-1.42-1.9-3.5-2.84-6.24-2.84-1.77,0-3.41.42-4.91,1.28-1.51.86-2.76,2.07-3.76,3.65-1,1.57-1.64,3.34-1.92,5.31h0ZM285.51,163.4c.36-2.52,1.16-4.45,2.39-5.8,1.23-1.35,2.7-2.02,4.39-2.02s3.03.68,3.88,2.05c.85,1.37,1.11,3.15.8,5.36-.35,2.47-1.14,4.38-2.37,5.75-1.22,1.37-2.71,2.05-4.45,2.05s-3.02-.67-3.86-2.02c-.84-1.35-1.09-3.15-.77-5.37h0ZM314.94,156.2c-.51-.09-1.06-.13-1.67-.13-2.26,0-3.92.96-5,2.88l-2.05,14.28h-3.44l2.89-20.09h3.34l-.28,2.31c1.39-1.79,3.11-2.69,5.18-2.69.67,0,1.17.09,1.48.26l-.46,3.18h0ZM321.3,153.14h-3.25l-2.89,20.09h3.44l2.11-14.66c1.11-1.92,2.79-2.88,5.04-2.88,2.86,0,4.08,1.46,3.66,4.38l-1.89,13.16h3.46l1.92-13.33c.32-1.29.96-2.31,1.91-3.07.95-.76,2.07-1.14,3.34-1.14,1.55,0,2.6.36,3.16,1.07.55.71.73,1.79.52,3.22l-1.91,13.25h3.44l1.94-13.47c.6-4.67-1.31-7-5.71-7-1.46,0-2.78.3-3.93.89-1.16.59-2.14,1.37-2.95,2.34-.7-2.16-2.46-3.23-5.27-3.23-2.5,0-4.61.87-6.34,2.6l.23-2.22h0ZM360.46,173.23c-.14-.39-.2-1.1-.18-2.11-1.84,1.66-3.86,2.49-6.08,2.49-1.98,0-3.53-.56-4.63-1.68-1.11-1.12-1.54-2.54-1.29-4.26.3-2.09,1.33-3.72,3.08-4.88,1.76-1.16,4.08-1.74,6.96-1.74h3.34l.23-1.58c.17-1.2-.05-2.16-.66-2.87-.62-.71-1.63-1.07-3.02-1.07-1.23,0-2.3.31-3.22.93-.92.62-1.44,1.37-1.57,2.24h-3.46c.14-1,.64-1.97,1.48-2.91.85-.93,1.92-1.67,3.22-2.22,1.3-.55,2.67-.82,4.14-.82,2.31,0,4.04.58,5.19,1.74,1.15,1.15,1.6,2.75,1.35,4.78l-1.33,9.25c-.27,1.85-.23,3.31.08,4.4l-.04.3h-3.61ZM355.13,170.68c1.08,0,2.14-.28,3.18-.84,1.05-.56,1.85-1.29,2.41-2.19l.6-4.16h-2.69c-4.21,0-6.49,1.24-6.85,3.73-.16,1.08.08,1.93.71,2.54.63.61,1.51.92,2.64.92h0ZM374.43,153.14l-.25,2.52c1.81-1.93,3.96-2.9,6.43-2.9,4.25,0,6.05,2.4,5.4,7.19l-1.91,13.28h-3.44l1.91-13.29c.2-1.45.02-2.52-.53-3.21-.55-.69-1.51-1.04-2.89-1.04-1.11,0-2.14.3-3.06.89-.92.6-1.69,1.38-2.3,2.34l-2.06,14.31h-3.44l2.89-20.09h3.25ZM397.21,170.79c1.23,0,2.35-.37,3.37-1.11,1.03-.74,1.67-1.67,1.92-2.78h3.25c-.23,1.15-.78,2.25-1.66,3.29-.88,1.04-1.98,1.87-3.29,2.49-1.31.62-2.64.93-4.01.93-2.73,0-4.78-.91-6.14-2.74-1.35-1.83-1.8-4.33-1.34-7.5l.08-.58c.28-1.95.89-3.7,1.83-5.22.94-1.52,2.14-2.71,3.6-3.55,1.47-.84,3.11-1.26,4.94-1.26,2.26,0,4.03.67,5.33,2.02,1.3,1.35,1.84,3.11,1.63,5.26h-3.25c.09-1.3-.25-2.37-1.02-3.21-.76-.84-1.8-1.26-3.1-1.26-1.74,0-3.18.63-4.33,1.88-1.14,1.26-1.88,3.08-2.22,5.46l-.09.65c-.33,2.31-.11,4.1.66,5.35.77,1.25,2.04,1.88,3.81,1.88h0ZM416.54,173.61c-2.72,0-4.81-.89-6.27-2.68-1.45-1.79-1.96-4.18-1.53-7.18l.09-.63c.29-1.99.92-3.77,1.91-5.34.99-1.57,2.23-2.8,3.72-3.68,1.5-.89,3.04-1.33,4.64-1.33,2.61,0,4.52.86,5.72,2.58,1.2,1.72,1.57,4.19,1.11,7.4l-.21,1.43h-13.62c-.23,1.98.11,3.58,1.05,4.79.93,1.22,2.25,1.83,3.97,1.83,1.21,0,2.27-.25,3.19-.74.91-.49,1.74-1.15,2.49-1.96l1.86,1.64c-2.06,2.59-4.77,3.88-8.14,3.88h0ZM418.71,155.58c-1.39,0-2.62.51-3.71,1.52-1.08,1.01-1.87,2.43-2.36,4.26h10.07l.04-.26c.15-1.76-.12-3.11-.83-4.08s-1.78-1.45-3.21-1.45h0ZM454.5,160.75h-11.72l-1.37,9.55h13.61l-.42,2.93h-17.18l3.89-27.05h17l-.42,2.93h-13.43l-1.25,8.71h11.72l-.42,2.93h0ZM466.61,160.47l-3.35-7.33h-3.98l5.15,9.93-8.25,10.16h3.99l5.72-7.52,3.57,7.52h3.98l-5.32-10.16,8.01-9.93h-4.01l-5.51,7.33h0ZM484.44,170.79c1.23,0,2.35-.37,3.37-1.11,1.03-.74,1.67-1.67,1.92-2.78h3.25c-.23,1.15-.78,2.25-1.66,3.29-.88,1.04-1.98,1.87-3.29,2.49-1.31.62-2.64.93-4.01.93-2.73,0-4.78-.91-6.14-2.74-1.35-1.83-1.8-4.33-1.34-7.5l.08-.58c.28-1.95.89-3.7,1.83-5.22.94-1.52,2.14-2.71,3.6-3.55,1.47-.84,3.11-1.26,4.94-1.26,2.26,0,4.03.67,5.33,2.02,1.3,1.35,1.84,3.11,1.63,5.26h-3.25c.09-1.3-.25-2.37-1.02-3.21-.76-.84-1.8-1.26-3.1-1.26-1.74,0-3.18.63-4.33,1.88-1.14,1.26-1.88,3.08-2.22,5.46l-.09.65c-.33,2.31-.11,4.1.66,5.35.77,1.25,2.04,1.88,3.81,1.88h0ZM503.78,173.61c-2.72,0-4.81-.89-6.27-2.68-1.45-1.79-1.96-4.18-1.53-7.18l.09-.63c.29-1.99.92-3.77,1.91-5.34.99-1.57,2.23-2.8,3.72-3.68,1.5-.89,3.04-1.33,4.64-1.33,2.61,0,4.52.86,5.72,2.58,1.2,1.72,1.57,4.19,1.11,7.4l-.21,1.43h-13.62c-.23,1.98.11,3.58,1.05,4.79.93,1.22,2.25,1.83,3.97,1.83,1.21,0,2.27-.25,3.19-.74.91-.49,1.74-1.15,2.49-1.96l1.86,1.64c-2.06,2.59-4.77,3.88-8.14,3.88h0ZM505.94,155.58c-1.39,0-2.62.51-3.71,1.52-1.08,1.01-1.87,2.43-2.36,4.26h10.07l.04-.26c.15-1.76-.12-3.11-.83-4.08s-1.78-1.45-3.21-1.45h0ZM518.91,173.23h-3.44l4.1-28.53h3.44l-4.1,28.53h0ZM527.67,173.23h-3.44l4.1-28.53h3.44l-4.1,28.53h0ZM540.99,173.61c-2.72,0-4.81-.89-6.27-2.68-1.45-1.79-1.96-4.18-1.53-7.18l.09-.63c.29-1.99.92-3.77,1.91-5.34.99-1.57,2.23-2.8,3.72-3.68,1.5-.89,3.04-1.33,4.64-1.33,2.61,0,4.52.86,5.72,2.58,1.2,1.72,1.57,4.19,1.11,7.4l-.21,1.43h-13.62c-.23,1.98.11,3.58,1.05,4.79.93,1.22,2.25,1.83,3.97,1.83,1.21,0,2.27-.25,3.19-.74.91-.49,1.74-1.15,2.49-1.96l1.86,1.64c-2.06,2.59-4.77,3.88-8.14,3.88h0ZM543.15,155.58c-1.39,0-2.62.51-3.71,1.52-1.08,1.01-1.87,2.43-2.36,4.26h10.07l.04-.26c.15-1.76-.12-3.11-.83-4.08-.7-.96-1.78-1.45-3.21-1.45h0ZM558.53,153.14l-.25,2.52c1.81-1.93,3.96-2.9,6.43-2.9,4.25,0,6.05,2.4,5.4,7.19l-1.91,13.28h-3.44l1.91-13.29c.2-1.45.02-2.52-.53-3.21-.55-.69-1.51-1.04-2.89-1.04-1.11,0-2.14.3-3.06.89-.92.6-1.69,1.38-2.3,2.34l-2.06,14.31h-3.44l2.89-20.09h3.25ZM581.31,170.79c1.23,0,2.35-.37,3.37-1.11,1.03-.74,1.67-1.67,1.92-2.78h3.25c-.23,1.15-.78,2.25-1.66,3.29-.88,1.04-1.98,1.87-3.29,2.49-1.31.62-2.64.93-4.01.93-2.73,0-4.78-.91-6.14-2.74-1.35-1.83-1.8-4.33-1.34-7.5l.08-.58c.28-1.95.89-3.7,1.83-5.22.94-1.52,2.14-2.71,3.6-3.55,1.47-.84,3.11-1.26,4.94-1.26,2.26,0,4.03.67,5.33,2.02,1.3,1.35,1.84,3.11,1.63,5.26h-3.25c.09-1.3-.25-2.37-1.02-3.21-.76-.84-1.8-1.26-3.1-1.26-1.74,0-3.18.63-4.33,1.88-1.14,1.26-1.88,3.08-2.22,5.46l-.09.65c-.33,2.31-.11,4.1.66,5.35.77,1.25,2.04,1.88,3.81,1.88h0ZM600.64,173.61c-2.72,0-4.81-.89-6.27-2.68-1.45-1.79-1.96-4.18-1.53-7.18l.09-.63c.29-1.99.92-3.77,1.91-5.34.99-1.57,2.23-2.8,3.72-3.68,1.5-.89,3.04-1.33,4.64-1.33,2.61,0,4.52.86,5.72,2.58,1.2,1.72,1.57,4.19,1.11,7.4l-.21,1.43h-13.62c-.23,1.98.11,3.58,1.05,4.79.93,1.22,2.25,1.83,3.97,1.83,1.21,0,2.27-.25,3.19-.74.91-.49,1.74-1.15,2.49-1.96l1.86,1.64c-2.06,2.59-4.77,3.88-8.14,3.88h0ZM602.81,155.58c-1.39,0-2.62.51-3.71,1.52-1.08,1.01-1.87,2.43-2.36,4.26h10.07l.04-.26c.15-1.76-.12-3.11-.83-4.08s-1.78-1.45-3.21-1.45Z"/>
    <g>
      <path class="cls-1" d="M640.41,13.49h-2.35l-.83,4.73h-2.09l2.14-12.31h3.88c1.34,0,2.36.33,3.07.97.71.65,1.02,1.54.92,2.69-.06.8-.33,1.49-.8,2.07-.47.58-1.12,1.04-1.97,1.37l1.82,5.08v.13h-2.23l-1.57-4.73h0ZM638.34,11.76l2.02.02c.73,0,1.33-.19,1.82-.57.49-.38.77-.89.86-1.55.09-.63-.03-1.12-.34-1.46-.31-.34-.78-.52-1.41-.55h-2.23s-.72,4.11-.72,4.11Z"/>
      <path class="cls-1" d="M640.03,0c6.69,0,12.12,5.43,12.12,12.12s-5.43,12.12-12.12,12.12-12.12-5.43-12.12-12.12,5.43-12.12,12.12-12.12h0ZM640.03,2.43c-5.35,0-9.69,4.34-9.69,9.69s4.34,9.69,9.69,9.69,9.69-4.34,9.69-9.69-4.34-9.69-9.69-9.69Z"/>
    </g>
  </g>
</svg>