<?xml version="1.0" encoding="UTF-8"?>
<svg id="Camada_2" data-name="Camada 2" xmlns="http://www.w3.org/2000/svg" viewBox="0 0 181.15 181.15">
  <defs>
    <style>
      .cls-1 {
        fill: #242e3d;
      }

      .cls-2 {
        fill: #fff;
      }

      .cls-3 {
        fill: #f90;
      }
    </style>
  </defs>
  <g id="Camada_1-2" data-name="Camada 1">
    <g>
      <path class="cls-2" d="M123.18,0H0v123.79l57.36,57.36h123.79V57.97L123.18,0Z"/>
      <path class="cls-3" d="M121.67,3.77l55.71,55.71v117.9H58.87L3.77,122.28V3.77h117.9M123.18,0H0v123.79l57.36,57.36h123.79V57.97L123.18,0Z"/>
      <path class="cls-1" d="M29.44,102.05v6.64h-3.77v-18.11h6.94c1.66-.15,3.17.46,4.53,1.51,2.26,2.41,2.26,6.04,0,8.45-1.2,1.06-2.87,1.66-4.53,1.51h-3.17ZM29.44,99.18h2.72c.75,0,1.51-.15,1.96-.75.9-1.2.9-3.02,0-4.22-.61-.46-1.2-.75-1.96-.75h-2.72v5.73ZM54.64,108.69l-1.2-4.07h-6.19l-1.21,4.07h-4.07l6.34-18.11h4.38l6.19,18.11h-4.23ZM48.01,101.75h4.53l-2.26-7.55-2.26,7.55ZM64.31,108.69v-18.11h6.94c1.67-.15,3.18.46,4.53,1.51,1.06,1.05,1.67,2.56,1.67,4.07,0,1.06-.31,1.97-.91,2.87-.6.9-1.51,1.51-2.41,1.97l4.53,7.85h-4.07l-3.92-7.09h-2.57v6.94h-3.77ZM68.08,98.88h2.72c1.36.15,2.56-.75,2.71-2.12v-.75c.16-1.36-.75-2.56-1.96-2.71h-3.33v5.58h-.15ZM87.85,108.69v-14.95h-5.58v-3.17h14.95v3.17h-5.59v14.95h-3.77ZM106.72,96.16v12.53h-3.47v-18.11h4.22l7.4,12.68v-12.68h3.48v18.11h-4.23l-7.4-12.53ZM125.3,108.69v-18.11h11.93v3.02h-8v4.23h6.5v3.02h-6.5v4.83h8v3.02h-11.93ZM144.17,108.69v-18.11h6.94c1.66-.15,3.17.46,4.53,1.51,1.06,1.05,1.66,2.56,1.66,4.07,0,1.06-.3,1.97-.9,2.87s-1.51,1.51-2.41,1.97l4.53,7.85h-4.07l-3.93-7.09h-2.56v6.94h-3.77ZM147.94,98.88h2.72c1.35.15,2.56-.75,2.71-2.12v-.75c.15-1.36-.75-2.56-1.96-2.71h-3.48v5.58Z"/>
      <path class="cls-1" d="M40.3,41.51c0,.61,0,1.21.31,1.81.15.46.45,1.06.61,1.51.15.16.15.31.15.46,0,.3-.15.46-.46.61l-1.36.9h-.45c-.31,0-.46-.15-.61-.3-.3-.31-.61-.61-.75-.91-.15-.3-.46-.75-.61-1.2-1.51,1.81-3.63,2.87-6.04,2.87-1.51.15-3.02-.46-4.07-1.51-1.06-1.06-1.51-2.42-1.51-3.93,0-1.66.61-3.17,1.81-4.22,1.36-1.06,3.17-1.66,4.99-1.66.75,0,1.51,0,2.12.15l2.26.45v-1.51c.15-1.2-.16-2.41-.91-3.32-.9-.75-2.11-1.05-3.32-.9-.75,0-1.51.15-2.26.3s-1.51.46-2.26.75c-.3.15-.46.15-.75.31h-.3c-.31,0-.46-.16-.46-.61v-1.06c0-.3,0-.45.15-.75.15-.15.31-.3.61-.45.75-.46,1.66-.75,2.56-.9,1.06-.31,2.12-.46,3.18-.46,1.96-.15,3.77.46,5.28,1.66,1.2,1.36,1.81,3.17,1.66,4.99l.45,6.94ZM32,44.53c.75,0,1.36-.15,2.12-.3.75-.31,1.36-.75,1.97-1.36.3-.31.61-.75.75-1.36s.15-1.21.15-1.81v-.91c-.61-.15-1.21-.3-1.81-.3-.61-.15-1.21-.15-1.97-.15-1.05-.15-2.12.15-3.02.75-1.21,1.2-1.36,3.17-.3,4.53.6.75,1.35,1.05,2.11.9h0ZM48.46,46.8c-.3,0-.61,0-.75-.15-.15-.15-.3-.46-.45-.75l-4.84-15.85c-.15-.31-.15-.61-.15-.75,0-.31.15-.46.3-.46h2.12c.31,0,.61,0,.75.15.15.16.31.46.46.75l3.47,13.44,3.18-13.44c0-.3.15-.6.45-.75.31-.15.61-.15.75-.15h1.66c.31,0,.61,0,.75.15.16.16.31.46.46.75l3.17,13.75,3.48-13.75c0-.3.15-.6.45-.75.31-.15.46-.15.75-.15h1.97c.3,0,.46.15.46.31v.45c0,.15-.16.31-.16.46l-4.83,15.7c0,.3-.15.6-.46.75-.15.3-.45.3-.75.3h-1.81c-.3,0-.61,0-.75-.15-.15-.31-.3-.46-.46-.75l-3.17-13.14-3.17,13.14c0,.3-.15.61-.46.75-.15.15-.45.15-.6.15h-1.82ZM74.72,47.4c-1.05,0-2.12-.15-3.17-.31-.75-.15-1.66-.45-2.41-.75-.46-.15-.75-.6-.75-1.2v-1.06c0-.45.15-.6.45-.6h.31c.15,0,.3.15.45.15.75.3,1.51.61,2.26.75.75.15,1.66.3,2.41.3,1.06,0,2.12-.15,3.02-.75.61-.45,1.06-1.2,1.06-1.96,0-.61-.15-1.06-.61-1.36-.61-.46-1.36-.9-2.12-1.06l-3.02-.9c-1.2-.3-2.41-1.05-3.32-2.12-.61-.9-1.06-1.96-1.06-3.02,0-.75.16-1.51.61-2.26.31-.6.9-1.2,1.51-1.66.61-.45,1.36-.9,2.12-1.05.9-.31,1.66-.31,2.56-.31.46,0,.91,0,1.36.16.46,0,.9.15,1.36.3s.75.15,1.21.3c.3.16.6.16.9.31.3.15.45.3.61.45.15.16.15.46.15.75v.91c0,.45-.15.6-.46.6s-.61-.15-.75-.3c-1.2-.61-2.56-.75-3.92-.75-.9,0-1.81.15-2.72.61-.6.3-1.05,1.05-.9,1.81,0,.61.15,1.06.61,1.51.61.61,1.36.9,2.26,1.06l2.87.9c1.2.3,2.26,1.05,3.17,1.96.61.75.9,1.82.9,2.87,0,.75-.15,1.66-.61,2.41-.3.75-.9,1.36-1.51,1.82-.6.45-1.51.9-2.26,1.2-.6.16-1.66.31-2.56.31h0Z"/>
      <path class="cls-3" d="M78.5,57.22c-6.79,4.98-16.46,7.55-24.91,7.55-11.17,0-22.04-4.08-30.34-11.63-.61-.6,0-1.35.75-.9,9.21,5.43,19.77,8.15,30.34,8.15,8,0,15.85-1.66,23.25-4.68,1.05-.46,2.12.75.9,1.51h0ZM79.55,61.74c-.3.61.31.9.91.45,3.61-3.02,4.53-9.36,3.77-10.26-.75-.9-7.1-1.66-10.88,1.05-.61.46-.45,1.06.15.9,2.12-.3,6.95-.9,7.86.31.9,1.2-1.06,5.58-1.82,7.55h0Z"/>
      <path class="cls-1" d="M90.14,122.28v-8.37h1.46v7.17h3.87v1.2h-5.33Z"/>
      <path class="cls-1" d="M96.49,122.28v-6.16h1.42v6.16h-1.42ZM97.2,115.11c-.27,0-.49-.07-.64-.21-.14-.14-.21-.34-.21-.59,0-.27.07-.47.21-.61.15-.14.37-.21.64-.21s.47.07.61.21c.16.14.24.35.24.61,0,.25-.08.45-.24.59-.14.14-.35.21-.61.21h0Z"/>
      <path class="cls-1" d="M100.1,122.28v-5.07h-1.06v-.87l1.06-.17v-.83c0-1.45.68-2.17,2.05-2.17.49,0,.91.09,1.27.24v.97c-.47-.05-.78-.07-.92-.07-.35,0-.61.06-.75.19-.14.13-.21.35-.21.66v.97h1.79v1.08h-1.79v5.07h-1.44Z"/>
      <path class="cls-1" d="M105.29,119.54c.03.61.2,1.08.52,1.37.32.28.8.42,1.46.42.6,0,1.24-.12,1.93-.35v1.01c-.27.14-.59.25-.97.33-.38.09-.76.14-1.16.14-1.02,0-1.79-.27-2.31-.83-.52-.55-.78-1.35-.78-2.41s.24-1.84.75-2.41c.52-.58,1.23-.87,2.15-.87.79,0,1.39.21,1.82.64.42.42.64,1.04.64,1.84,0,.41-.04.78-.12,1.11h-3.94ZM106.82,116.99c-.42,0-.78.15-1.06.45-.27.28-.42.68-.47,1.16h2.81v-.09c0-.48-.11-.86-.33-1.11-.23-.27-.54-.4-.94-.4h0Z"/>
      <path class="cls-1" d="M115.62,118.43c-.68-.27-1.17-.57-1.49-.92-.3-.36-.45-.81-.45-1.37,0-.74.26-1.33.78-1.77.54-.44,1.25-.66,2.15-.66.74,0,1.49.14,2.26.42v1.18c-.79-.24-1.5-.35-2.15-.35-1.07,0-1.6.35-1.6,1.06,0,.28.09.51.28.68.21.18.55.35,1.04.52l1.01.38c.67.25,1.17.56,1.46.92.31.35.47.79.47,1.34,0,.82-.29,1.46-.87,1.93-.57.45-1.34.68-2.33.68-.44,0-.87-.05-1.3-.14-.42-.08-.79-.2-1.11-.35v-1.16c.39.13.8.23,1.23.31.43.06.83.09,1.18.09.57,0,1-.1,1.3-.31.31-.21.47-.5.47-.9,0-.27-.09-.49-.28-.66-.19-.19-.51-.36-.97-.54l-1.08-.4Z"/>
      <path class="cls-1" d="M125.18,122.04c-.47.25-1.04.38-1.7.38-.94,0-1.67-.27-2.17-.83-.51-.55-.75-1.33-.75-2.33s.26-1.84.78-2.41c.52-.57,1.25-.85,2.19-.85.57,0,1.12.12,1.6.35v1.01c-.54-.15-.99-.24-1.37-.24-.61,0-1.06.17-1.34.5-.28.32-.42.82-.42,1.51v.17c0,.68.14,1.18.42,1.51.28.32.73.47,1.34.47.42,0,.9-.09,1.41-.26v1.01Z"/>
      <path class="cls-1" d="M126.51,122.28v-6.16h1.42v6.16h-1.42ZM127.22,115.11c-.27,0-.49-.07-.64-.21-.14-.14-.21-.34-.21-.59,0-.27.07-.47.21-.61.15-.14.37-.21.64-.21s.47.07.61.21c.16.14.24.35.24.61,0,.25-.08.45-.24.59-.14.14-.35.21-.61.21h0Z"/>
      <path class="cls-1" d="M130.72,119.54c.03.61.21,1.08.52,1.37.31.28.8.42,1.46.42.6,0,1.24-.12,1.93-.35v1.01c-.27.14-.59.25-.97.33-.38.09-.76.14-1.16.14-1.02,0-1.79-.27-2.31-.83-.52-.55-.78-1.35-.78-2.41s.24-1.84.75-2.41c.52-.58,1.23-.87,2.15-.87.79,0,1.39.21,1.82.64.42.42.64,1.04.64,1.84,0,.41-.04.78-.12,1.11h-3.94ZM132.25,116.99c-.42,0-.78.15-1.06.45-.27.28-.42.68-.47,1.16h2.81v-.09c0-.48-.11-.86-.33-1.11-.23-.27-.54-.4-.94-.4h0Z"/>
      <path class="cls-1" d="M140.23,122.28v-4.08c0-.39-.08-.68-.24-.85-.16-.19-.42-.28-.78-.28-.52,0-1.06.18-1.63.54v4.67h-1.42v-6.16h1.18l.14.68c.75-.57,1.54-.85,2.38-.85.57,0,1.02.16,1.32.47.32.3.47.75.47,1.34v4.5h-1.44Z"/>
      <path class="cls-1" d="M147.68,122.04c-.47.25-1.04.38-1.7.38-.94,0-1.67-.27-2.17-.83-.51-.55-.75-1.33-.75-2.33s.26-1.84.78-2.41c.52-.57,1.25-.85,2.19-.85.57,0,1.12.12,1.6.35v1.01c-.54-.15-.99-.24-1.37-.24-.61,0-1.06.17-1.34.5-.28.32-.42.82-.42,1.51v.17c0,.68.14,1.18.42,1.51.28.32.73.47,1.34.47.42,0,.9-.09,1.42-.26v1.01Z"/>
      <path class="cls-1" d="M149.96,119.54c.03.61.2,1.08.52,1.37.31.28.8.42,1.46.42.6,0,1.24-.12,1.93-.35v1.01c-.27.14-.59.25-.97.33-.38.09-.76.14-1.16.14-1.02,0-1.79-.27-2.31-.83-.52-.55-.78-1.35-.78-2.41s.24-1.84.75-2.41c.52-.58,1.24-.87,2.15-.87.79,0,1.39.21,1.82.64.42.42.64,1.04.64,1.84,0,.41-.04.78-.12,1.11h-3.94ZM151.49,116.99c-.42,0-.78.15-1.06.45-.27.28-.42.68-.47,1.16h2.81v-.09c0-.48-.11-.86-.33-1.11-.23-.27-.53-.4-.94-.4h0Z"/>
      <path class="cls-1" d="M158.18,120.6c0-.17-.06-.31-.19-.42-.11-.11-.31-.22-.61-.33l-1.01-.38c-.9-.34-1.34-.91-1.34-1.7,0-.57.2-1.01.61-1.32.42-.33.99-.5,1.7-.5.66,0,1.26.13,1.82.38v1.01c-.63-.21-1.22-.31-1.75-.31-.37,0-.63.06-.8.17-.18.11-.26.28-.26.5,0,.19.06.34.19.45.12.11.34.23.66.35l.94.35c.47.19.81.42,1.01.68.22.25.33.57.33.97,0,.6-.23,1.08-.66,1.44-.42.35-1.03.52-1.79.52-.38,0-.75-.05-1.11-.14-.36-.08-.68-.19-.97-.33v-.99c.79.25,1.47.38,2.05.38.41,0,.71-.06.9-.19.19-.13.28-.32.28-.59h0Z"/>
      <path class="cls-1" d="M112.01,130.51c-.68-.27-1.17-.57-1.49-.92-.3-.36-.45-.81-.45-1.37,0-.74.26-1.33.78-1.77.54-.44,1.25-.66,2.15-.66.74,0,1.49.14,2.26.42v1.18c-.79-.24-1.5-.35-2.15-.35-1.07,0-1.6.35-1.6,1.06,0,.28.09.51.28.68.21.18.55.35,1.04.52l1.01.38c.67.25,1.17.56,1.46.92.31.35.47.79.47,1.34,0,.82-.29,1.46-.87,1.93-.57.45-1.34.68-2.33.68-.44,0-.87-.05-1.3-.14-.42-.08-.79-.2-1.11-.35v-1.16c.39.13.8.23,1.23.31.43.06.83.09,1.18.09.57,0,1-.1,1.3-.31.31-.21.47-.5.47-.9,0-.27-.09-.49-.28-.66-.19-.19-.51-.36-.97-.54l-1.09-.4Z"/>
      <path class="cls-1" d="M119.93,134.54c-.94,0-1.67-.29-2.19-.87-.52-.58-.78-1.38-.78-2.41s.26-1.82.78-2.38c.52-.57,1.25-.85,2.19-.85s1.65.28,2.17.85.78,1.36.78,2.38-.26,1.82-.78,2.41c-.52.58-1.24.87-2.17.87h0ZM119.93,133.41c1,0,1.51-.71,1.51-2.15s-.51-2.12-1.51-2.12-1.53.71-1.53,2.12.5,2.15,1.53,2.15h0Z"/>
      <path class="cls-1" d="M124.71,134.35v-5.07h-1.06v-.87l1.06-.17v-.83c0-1.45.68-2.17,2.05-2.17.49,0,.91.09,1.27.24v.97c-.47-.05-.78-.07-.92-.07-.35,0-.61.06-.75.19-.14.13-.21.35-.21.66v.97h1.79v1.08h-1.79v5.07h-1.44Z"/>
      <path class="cls-1" d="M132.43,134.21c-.41.16-.87.24-1.34.24-.63,0-1.1-.15-1.42-.45-.3-.3-.45-.75-.45-1.37v-3.35h-1.04v-.87l1.08-.17.21-1.72h1.16v1.67h1.75v1.08h-1.75v3.28c0,.28.06.46.19.59.14.11.36.17.68.17s.64-.03.92-.09v.99Z"/>
      <path class="cls-1" d="M138.62,134.35l-1.2-4.62-1.2,4.62h-1.39l-2-6.16h1.53l1.2,4.69,1.23-4.69h1.34l1.25,4.79,1.25-4.79h1.44l-2.03,6.16h-1.41Z"/>
      <path class="cls-1" d="M146.59,134.35l-.09-.59c-.28.24-.61.42-.94.57-.34.14-.68.21-1.01.21-.57,0-1.03-.16-1.39-.5-.35-.35-.52-.79-.52-1.34,0-.6.21-1.07.64-1.41.44-.36,1.02-.54,1.75-.54.42,0,.9.06,1.41.19v-.71c0-.41-.09-.69-.28-.85-.17-.17-.49-.26-.92-.26-.63,0-1.36.13-2.17.4v-.99c.29-.16.66-.27,1.08-.35.43-.09.88-.14,1.32-.14.78,0,1.37.17,1.75.5.38.32.57.82.57,1.49v4.34h-1.18ZM144.94,133.53c.24,0,.48-.05.73-.14.25-.11.5-.26.75-.45v-1.16c-.42-.09-.8-.14-1.13-.14-.85,0-1.27.33-1.27.99,0,.28.08.5.24.66.17.16.4.24.68.24h0Z"/>
      <path class="cls-1" d="M149.46,134.35v-6.16h1.18l.19.92c.33-.34.64-.59.92-.73.28-.16.59-.24.92-.24.14,0,.31.02.5.05v1.3c-.24-.03-.47-.05-.71-.05-.61,0-1.12.15-1.58.45v4.46h-1.41Z"/>
      <path class="cls-1" d="M155.12,131.62c.03.61.21,1.08.52,1.37.31.28.8.42,1.46.42.6,0,1.24-.12,1.93-.35v1.01c-.27.14-.59.25-.97.33-.38.09-.76.14-1.16.14-1.02,0-1.79-.27-2.31-.83-.52-.55-.78-1.35-.78-2.41s.24-1.84.75-2.41c.52-.58,1.23-.87,2.15-.87.79,0,1.39.21,1.82.64.42.42.64,1.04.64,1.84,0,.41-.04.78-.12,1.11h-3.94ZM156.65,129.07c-.42,0-.78.15-1.06.45-.27.28-.42.68-.47,1.16h2.81v-.09c0-.48-.11-.86-.33-1.11-.23-.27-.54-.4-.94-.4h0Z"/>
      <path class="cls-1" d="M96.94,146.19c-.63.25-1.36.38-2.17.38-1.34,0-2.35-.35-3.02-1.06-.68-.71-1.01-1.75-1.01-3.14s.35-2.52,1.04-3.28c.71-.77,1.72-1.16,3.04-1.16.72,0,1.39.1,2.01.31v1.23c-.8-.17-1.43-.26-1.86-.26-.91,0-1.6.24-2.03.71-.44.47-.66,1.2-.66,2.19v.31c0,.98.21,1.7.64,2.17.44.47,1.12.71,2.03.71.5,0,1.16-.1,2-.31v1.2Z"/>
      <path class="cls-1" d="M100.87,146.62c-.94,0-1.67-.29-2.19-.87-.52-.58-.78-1.38-.78-2.41s.26-1.82.78-2.38c.52-.57,1.25-.85,2.19-.85s1.65.28,2.17.85c.52.57.78,1.36.78,2.38s-.26,1.82-.78,2.41c-.52.58-1.24.87-2.17.87h0ZM100.87,145.49c1,0,1.51-.71,1.51-2.15s-.51-2.12-1.51-2.12-1.53.71-1.53,2.12.5,2.15,1.53,2.15h0Z"/>
      <path class="cls-1" d="M113.05,146.43v-4.17c0-.36-.08-.62-.24-.78-.14-.17-.38-.26-.71-.26-.25,0-.52.05-.8.14-.28.08-.54.18-.73.31v4.76h-1.42v-4.17c0-.36-.08-.62-.24-.78-.14-.17-.38-.26-.71-.26-.24,0-.49.04-.75.12-.28.09-.53.19-.78.33v4.76h-1.41v-6.16h1.18l.14.64c.39-.28.77-.48,1.13-.61.36-.12.72-.19,1.08-.19.74,0,1.25.28,1.53.83.81-.55,1.6-.83,2.34-.83.57,0,1.01.16,1.32.47.31.3.47.75.47,1.34v4.5h-1.42Z"/>
      <path class="cls-1" d="M116.17,148.91v-8.63h1.18l.14.64c.28-.27.59-.46.92-.59.34-.14.71-.21,1.08-.21.75,0,1.36.28,1.82.85.45.57.68,1.34.68,2.31,0,.65-.1,1.22-.31,1.72-.21.49-.51.87-.92,1.16-.39.28-.85.42-1.37.42-.35,0-.68-.06-.99-.17-.32-.12-.59-.3-.83-.52v3.02h-1.41ZM119.05,141.22c-.54,0-1.02.16-1.46.47v3.28c.46.32.93.47,1.44.47s.9-.17,1.16-.52c.25-.36.38-.9.38-1.6s-.13-1.23-.38-1.58c-.25-.35-.63-.52-1.13-.52h0Z"/>
      <path class="cls-1" d="M124.41,143.69c.03.61.21,1.08.52,1.37.32.28.8.42,1.46.42.6,0,1.24-.12,1.93-.35v1.01c-.27.14-.59.25-.97.33-.38.09-.76.14-1.16.14-1.02,0-1.79-.27-2.31-.83-.52-.55-.78-1.35-.78-2.41s.24-1.84.75-2.41c.52-.58,1.23-.87,2.15-.87.79,0,1.39.21,1.82.64.42.42.64,1.04.64,1.84,0,.41-.04.78-.12,1.11h-3.94ZM125.95,141.15c-.42,0-.78.15-1.06.45-.27.28-.42.68-.47,1.16h2.81v-.09c0-.48-.11-.86-.33-1.11-.23-.27-.54-.4-.94-.4h0Z"/>
      <path class="cls-1" d="M133.4,146.29c-.41.16-.86.24-1.34.24-.63,0-1.1-.15-1.41-.45-.3-.3-.45-.75-.45-1.37v-3.35h-1.04v-.87l1.08-.17.21-1.72h1.16v1.67h1.75v1.08h-1.75v3.28c0,.28.06.46.19.59.14.11.36.17.68.17s.64-.03.92-.09v.99Z"/>
      <path class="cls-1" d="M135.55,143.69c.03.61.2,1.08.52,1.37.31.28.8.42,1.46.42.6,0,1.24-.12,1.93-.35v1.01c-.27.14-.59.25-.97.33-.38.09-.76.14-1.16.14-1.02,0-1.79-.27-2.31-.83-.52-.55-.78-1.35-.78-2.41s.24-1.84.75-2.41c.52-.58,1.24-.87,2.15-.87.78,0,1.39.21,1.82.64.42.42.64,1.04.64,1.84,0,.41-.04.78-.12,1.11h-3.94ZM137.08,141.15c-.42,0-.78.15-1.06.45-.27.28-.42.68-.47,1.16h2.81v-.09c0-.48-.11-.86-.33-1.11-.23-.27-.53-.4-.94-.4h0Z"/>
      <path class="cls-1" d="M145.05,146.43v-4.08c0-.39-.08-.68-.24-.85-.16-.19-.42-.28-.78-.28-.52,0-1.06.18-1.63.54v4.67h-1.42v-6.16h1.18l.14.68c.75-.57,1.54-.85,2.38-.85.57,0,1.02.16,1.32.47.31.3.47.75.47,1.34v4.5h-1.44Z"/>
      <path class="cls-1" d="M152.51,146.19c-.47.25-1.04.38-1.7.38-.94,0-1.67-.27-2.17-.83-.51-.55-.75-1.33-.75-2.33s.26-1.84.78-2.41c.52-.57,1.25-.85,2.19-.85.57,0,1.12.12,1.6.35v1.01c-.54-.15-.99-.24-1.37-.24-.61,0-1.06.17-1.34.5-.28.32-.42.82-.42,1.51v.17c0,.68.14,1.18.42,1.51.28.32.73.47,1.34.47.42,0,.9-.09,1.42-.26v1.01Z"/>
      <path class="cls-1" d="M155.4,146.5l-2.38-6.23h1.51l1.56,4.88,1.58-4.88h1.46l-2.76,7.12c-.23.6-.49,1.02-.8,1.27-.3.27-.7.4-1.18.4-.37,0-.7-.06-1.01-.19v-.99c.19.05.39.07.61.07.35,0,.6-.06.78-.19.17-.13.34-.41.5-.85l.14-.42Z"/>
    </g>
  </g>
</svg>